<?xml version="1.0" standalone="no"?>
<!DOCTYPE svg PUBLIC "-//W3C//DTD SVG 20010904//EN"
 "http://www.w3.org/TR/2001/REC-SVG-20010904/DTD/svg10.dtd">
<svg version="1.0" xmlns="http://www.w3.org/2000/svg"
 width="600.000000pt" height="284.000000pt" viewBox="0 0 600.000000 284.000000"
 preserveAspectRatio="xMidYMid meet">
<g transform="translate(0.000000,284.000000) scale(0.100000,-0.100000)"
fill="#000000" stroke="none">
<path d="M1418 2603 c7 -3 16 -2 19 1 4 3 -2 6 -13 5 -11 0 -14 -3 -6 -6z"/>
<path d="M1442 2553 c-2 -45 1 -48 33 -32 19 9 19 9 -2 5 -19 -3 -22 1 -26 33
-4 36 -4 36 -5 -6z"/>
<path d="M1395 2510 c-3 -5 -14 -10 -24 -10 -9 0 -26 -6 -37 -14 -16 -12 -17
-17 -6 -28 11 -11 12 -10 7 4 -5 13 2 19 34 28 23 6 41 15 41 20 0 13 -7 13
-15 0z"/>
<path d="M1458 2493 c-15 -4 -18 -14 -16 -56 l2 -52 3 47 c4 44 7 48 36 57 32
9 8 13 -25 4z"/>
<path d="M1370 2460 c0 -5 7 -7 15 -4 13 5 15 -8 15 -80 0 -73 -4 -95 -25
-136 -14 -27 -25 -62 -24 -77 1 -25 2 -24 10 9 4 20 17 51 29 70 16 27 20 50
20 131 0 90 -1 97 -20 97 -11 0 -20 -4 -20 -10z"/>
<path d="M1442 2330 c0 -14 2 -19 5 -12 2 6 2 18 0 25 -3 6 -5 1 -5 -13z"/>
<path d="M1424 2268 c-4 -7 -4 -10 1 -6 4 4 15 2 23 -5 12 -10 14 -9 11 2 -7
20 -26 25 -35 9z"/>
<path d="M1396 2218 c-18 -25 -21 -70 -7 -97 11 -20 59 -21 72 0 23 36 -2 119
-36 119 -8 0 -21 -10 -29 -22z m58 -19 c5 -14 6 -38 2 -53 -5 -22 -12 -27 -34
-24 -22 2 -28 9 -30 35 -6 66 42 98 62 42z"/>
<path d="M1471 2220 c14 -31 19 -36 19 -24 0 6 -7 19 -16 30 -14 18 -14 18 -3
-6z"/>
<path d="M1362 2120 c2 -8 -8 -25 -24 -38 -16 -14 -26 -27 -23 -30 3 -3 15 4
28 15 12 11 27 22 34 24 8 3 7 10 -4 24 -8 11 -13 13 -11 5z"/>
<path d="M1467 2104 c-4 -4 7 -24 23 -44 22 -28 30 -49 30 -78 0 -22 7 -47 15
-55 10 -10 12 -26 8 -53 -6 -36 -5 -38 11 -25 23 20 40 1 40 -45 0 -30 2 -33
9 -17 10 24 -17 98 -33 88 -6 -3 -10 4 -10 17 0 13 -7 32 -15 42 -8 11 -15 39
-15 62 0 24 -5 46 -11 50 -6 3 -19 19 -28 35 -10 16 -21 26 -24 23z"/>
<path d="M1380 2073 c-28 -11 -50 -42 -50 -73 0 -17 -5 -41 -11 -52 -10 -18
-9 -20 6 -15 9 4 25 7 36 7 10 0 19 4 19 9 0 5 -9 7 -20 4 -17 -4 -19 0 -17
37 1 31 7 47 26 61 23 18 26 18 49 3 23 -15 25 -15 19 1 -4 9 -7 19 -7 21 0 6
-32 4 -50 -3z"/>
<path d="M1440 2071 c0 -5 7 -12 16 -15 24 -9 28 -7 14 9 -14 17 -30 20 -30 6z"/>
<path d="M1303 1999 c-1 -27 -9 -48 -22 -61 -22 -20 -26 -34 -12 -42 11 -7 2
-56 -11 -56 -5 0 -3 -10 4 -22 12 -22 13 -20 18 22 3 25 1 51 -4 58 -6 9 -3
19 11 32 22 20 39 88 26 101 -5 5 -9 -10 -10 -32z"/>
<path d="M1470 2036 c0 -2 7 -7 16 -10 8 -3 12 -2 9 4 -6 10 -25 14 -25 6z"/>
<path d="M1450 1990 c0 -32 4 -40 18 -40 10 0 24 -6 31 -12 11 -11 13 -9 7 12
-3 14 -6 32 -6 41 0 9 -11 21 -25 27 -24 11 -25 11 -25 -28z m37 -10 c1 -11
-4 -20 -13 -20 -8 0 -14 10 -14 25 0 29 25 25 27 -5z"/>
<path d="M1400 1960 c-12 -8 -9 -10 13 -10 15 0 27 5 27 10 0 13 -20 13 -40 0z"/>
<path d="M1361 1926 l-65 -11 3 -57 c2 -52 0 -58 -24 -74 -19 -13 -23 -19 -13
-25 9 -6 1 -13 -24 -24 -21 -8 -42 -15 -48 -15 -5 0 -10 -7 -10 -14 0 -12 6
-13 29 -5 27 9 83 59 67 59 -4 0 0 7 8 16 9 8 19 13 24 10 4 -2 9 11 10 31 2
20 7 44 13 54 7 15 6 17 -6 13 -8 -4 -15 -1 -15 5 0 15 71 3 83 -13 4 -6 6
-27 4 -47 -4 -27 0 -38 14 -47 21 -14 25 -3 7 17 -10 11 -10 13 0 7 7 -4 12
-1 12 8 0 9 -4 16 -10 16 -5 0 -10 7 -10 15 0 8 5 15 10 15 21 0 9 18 -20 30
-43 18 -45 28 -5 25 19 -1 35 2 35 7 0 4 4 8 9 8 5 0 8 -29 5 -65 -2 -44 0
-65 7 -65 8 0 8 -5 -1 -15 -10 -12 -10 -15 3 -15 8 0 17 11 19 25 3 13 1 22
-3 19 -4 -2 -9 24 -11 58 -3 72 -2 71 -97 54z"/>
<path d="M1470 1904 c0 -21 3 -24 14 -15 15 13 30 0 39 -34 3 -12 5 -4 6 17 1
27 -4 40 -18 48 -31 16 -41 12 -41 -16z"/>
<path d="M2462 1918 c-7 -7 -12 -19 -12 -28 0 -8 -10 -20 -22 -25 -17 -7 -23
-18 -23 -40 0 -23 5 -31 23 -33 27 -4 29 -23 2 -40 -16 -10 -20 -23 -20 -66 0
-47 -4 -57 -26 -75 -14 -11 -67 -58 -118 -104 -170 -156 -275 -247 -285 -247
-6 0 -11 -7 -11 -16 0 -18 55 28 297 245 l152 136 0 58 c1 50 4 60 21 64 14 4
20 14 20 33 0 24 -3 27 -26 22 -23 -4 -25 -2 -22 24 2 21 9 30 25 32 15 2 23
11 25 30 2 21 10 28 33 33 28 6 28 7 5 8 -15 0 -31 -4 -38 -11z"/>
<path d="M2480 1885 c0 -14 5 -25 10 -25 6 0 10 11 10 25 0 14 -4 25 -10 25
-5 0 -10 -11 -10 -25z"/>
<path d="M2510 1890 c0 -11 5 -20 10 -20 6 0 10 9 10 20 0 11 -4 20 -10 20 -5
0 -10 -9 -10 -20z"/>
<path d="M2553 1879 c9 -5 18 -22 18 -37 2 -24 2 -25 6 -4 5 24 -12 52 -31 52
-6 0 -3 -5 7 -11z"/>
<path d="M1357 1862 c-15 -17 -24 -62 -12 -62 3 0 14 9 26 21 16 16 19 26 12
41 -8 19 -9 19 -26 0z m10 -17 c0 -8 -4 -15 -9 -15 -10 0 -11 14 -1 23 9 10
10 9 10 -8z"/>
<path d="M1484 1865 c-8 -21 -1 -38 18 -41 14 -2 15 3 6 27 -11 33 -16 36 -24
14z m13 -27 c-3 -8 -6 -5 -6 6 -1 11 2 17 5 13 3 -3 4 -12 1 -19z"/>
<path d="M2505 1849 c-4 -6 -5 -13 -2 -16 8 -7 47 7 47 18 0 13 -37 11 -45 -2z"/>
<path d="M1206 1837 c-14 -10 -17 -23 -14 -50 3 -28 0 -37 -14 -40 -27 -7 -32
-33 -18 -80 10 -29 15 -36 18 -23 2 10 -2 29 -9 42 -10 19 -10 26 1 39 7 8 19
15 26 15 11 0 13 9 8 38 -4 28 -2 41 10 51 14 11 16 11 16 -3 0 -9 -5 -16 -11
-16 -6 0 -8 -9 -3 -22 4 -13 7 -29 7 -36 0 -30 19 9 20 42 1 45 -13 61 -37 43z"/>
<path d="M2443 1842 c-34 -5 -28 -22 7 -22 28 0 30 -3 30 -35 0 -19 5 -35 10
-35 6 0 10 17 10 38 0 41 -20 60 -57 54z"/>
<path d="M1546 1812 c-8 -13 5 -53 15 -46 15 9 10 -23 -5 -39 -8 -8 -17 -36
-20 -63 -5 -38 -4 -44 4 -26 14 32 34 23 41 -19 4 -19 7 -25 8 -13 0 11 6 25
13 32 9 9 9 12 -3 12 -8 0 -15 8 -16 18 -1 9 -5 31 -9 47 -6 29 -6 29 11 10
l17 -20 -7 20 c-4 11 -10 31 -13 45 -6 28 -28 54 -36 42z m24 -128 c0 -8 -4
-12 -10 -9 -5 3 -10 13 -10 21 0 8 5 12 10 9 6 -3 10 -13 10 -21z"/>
<path d="M2512 1790 c1 -16 6 -30 11 -30 5 0 7 9 4 21 -4 14 1 23 16 29 21 8
20 9 -6 9 -24 1 -27 -2 -25 -29z"/>
<path d="M1517 1797 c-3 -9 -2 -19 3 -22 6 -4 10 -11 10 -16 0 -6 -5 -7 -12
-3 -7 5 -8 3 -2 -7 5 -8 8 -23 7 -34 -2 -14 -1 -15 4 -5 3 8 11 18 17 22 7 5
7 8 -2 8 -7 0 -11 4 -8 8 3 5 2 22 -3 37 -6 23 -9 26 -14 12z"/>
<path d="M1327 1772 c-28 -30 -22 -53 13 -50 17 1 30 6 30 11 0 5 -9 6 -19 2
-23 -7 -33 5 -21 25 7 11 11 11 24 1 9 -8 16 -9 16 -3 0 5 -6 15 -13 21 -11 8
-18 7 -30 -7z"/>
<path d="M1450 1760 l-35 -7 43 -2 c23 0 42 4 42 9 0 6 -3 9 -7 9 -5 -1 -24
-5 -43 -9z"/>
<path d="M1605 1740 c8 -37 8 -90 0 -341 l-8 -226 61 -5 c34 -2 65 -8 69 -12
5 -4 -8 -21 -27 -37 -26 -22 -30 -29 -16 -29 10 0 50 33 89 74 76 78 127 111
158 103 11 -3 19 -1 19 4 0 12 -42 11 -75 -1 -14 -5 -50 -34 -78 -64 -48 -50
-54 -53 -71 -40 -11 8 -41 14 -66 14 l-47 0 4 158 c7 328 6 388 -6 408 -10 17
-11 17 -6 -6z"/>
<path d="M2546 1747 c3 -10 9 -15 12 -12 3 3 0 11 -7 18 -10 9 -11 8 -5 -6z"/>
<path d="M1400 1736 c0 -7 -7 -19 -15 -26 -9 -7 -14 -15 -11 -17 2 -2 15 7 29
21 19 19 21 26 11 30 -8 3 -14 -1 -14 -8z"/>
<path d="M1264 1719 c-19 -22 -19 -22 4 -8 12 8 22 17 22 21 0 12 -6 9 -26
-13z"/>
<path d="M1501 1724 c0 -11 3 -14 6 -6 3 7 2 16 -1 19 -3 4 -6 -2 -5 -13z"/>
<path d="M2473 1733 c9 -2 15 -9 12 -14 -4 -5 -1 -9 4 -9 6 0 11 7 11 15 0 9
-9 15 -22 14 -18 -1 -19 -2 -5 -6z"/>
<path d="M1476 1715 c4 -8 8 -15 10 -15 2 0 4 7 4 15 0 8 -4 15 -10 15 -5 0
-7 -7 -4 -15z"/>
<path d="M2439 1725 c-3 -5 -7 -32 -8 -58 -1 -45 -5 -51 -64 -106 -78 -73
-227 -206 -329 -294 -70 -61 -98 -93 -98 -112 0 -8 63 47 310 269 91 82 164
153 162 158 -1 5 2 7 7 4 19 -12 32 24 29 86 -2 34 -6 59 -9 53z"/>
<path d="M1330 1700 c-13 -9 -13 -10 0 -10 8 -1 -1 -10 -22 -20 -36 -19 -83
-69 -74 -78 3 -2 18 10 33 28 15 18 43 40 63 48 19 8 29 17 22 19 -6 3 -10 9
-6 14 7 11 3 11 -16 -1z"/>
<path d="M1281 1691 c-7 -5 -9 -11 -5 -14 5 -3 15 1 22 9 14 16 5 18 -17 5z"/>
<path d="M1190 1633 c0 -62 10 -69 12 -7 0 21 5 45 11 52 7 8 5 12 -7 12 -13
0 -16 -11 -16 -57z"/>
<path d="M2480 1680 c0 -5 5 -10 11 -10 5 0 7 5 4 10 -3 6 -8 10 -11 10 -2 0
-4 -4 -4 -10z"/>
<path d="M2521 1649 c-1 -29 5 -40 25 -54 17 -11 29 -14 36 -7 7 7 3 14 -11
22 -12 6 -28 25 -35 43 l-14 32 -1 -36z"/>
<path d="M2553 1667 c9 -8 17 -20 17 -28 1 -8 72 -58 158 -112 86 -54 216
-135 287 -180 133 -85 330 -208 375 -235 23 -14 24 -14 10 1 -8 8 -43 33 -77
54 -124 76 -350 218 -458 288 -60 39 -149 95 -196 124 -47 29 -89 63 -95 74
-5 11 -16 22 -24 24 -11 3 -11 1 3 -10z"/>
<path d="M1240 1645 c-13 -14 -22 -27 -19 -29 2 -2 14 10 27 25 29 36 24 38
-8 4z"/>
<path d="M1435 1648 c16 -27 65 -40 65 -19 0 5 -8 8 -17 6 -10 -1 -29 7 -42
19 l-24 21 18 -27z"/>
<path d="M1296 1630 c-22 -20 -33 -38 -31 -50 2 -11 0 -22 -5 -25 -12 -7 -10
-475 2 -475 5 0 8 24 7 53 -1 28 2 61 6 72 6 17 5 17 -5 5 -8 -11 -10 28 -6
165 3 99 6 181 7 183 1 1 2 7 3 13 0 5 12 19 26 29 17 13 20 20 10 20 -9 0 -5
6 10 15 29 17 76 19 85 5 4 -6 -11 -10 -37 -11 -43 -1 -43 -2 12 -9 30 -5 56
-7 58 -5 2 2 -6 13 -17 24 -32 32 -83 28 -125 -9z"/>
<path d="M1511 1634 c0 -11 3 -14 6 -6 3 7 2 16 -1 19 -3 4 -6 -2 -5 -13z"/>
<path d="M1547 1616 c-12 -31 -8 -66 8 -66 16 0 19 31 6 64 -7 18 -8 18 -14 2z"/>
<path d="M1166 1415 c1 -113 5 -209 9 -213 8 -8 4 377 -4 401 -4 10 -6 -75 -5
-188z"/>
<path d="M1322 1595 c-18 -8 -31 -18 -29 -22 2 -5 1 -32 -2 -60 -7 -53 -7 -53
19 -53 15 0 48 3 74 6 l46 7 0 59 c0 54 -2 59 -26 68 -33 13 -42 12 -82 -5z
m86 -9 c7 -4 12 -27 12 -51 0 -42 -2 -44 -32 -50 -89 -15 -97 -9 -84 60 9 44
64 66 104 41z"/>
<path d="M1445 1600 c-3 -5 -1 -10 4 -10 6 0 11 5 11 10 0 6 -2 10 -4 10 -3 0
-8 -4 -11 -10z"/>
<path d="M1478 1603 c7 -3 16 -2 19 1 4 3 -2 6 -13 5 -11 0 -14 -3 -6 -6z"/>
<path d="M1508 1468 c-1 -79 -2 -194 -2 -255 -1 -62 -4 -113 -8 -113 -5 0 -9
87 -10 193 -1 105 -4 159 -5 120 -2 -41 -8 -73 -14 -73 -7 0 -9 43 -7 120 2
66 0 120 -4 120 -5 0 -9 -52 -9 -115 -1 -63 -2 -121 -3 -127 -1 -7 7 -12 16
-10 15 2 16 -10 16 -107 0 -73 -4 -111 -12 -114 -8 -3 -11 25 -9 100 2 134
-10 125 -17 -12 l-5 -104 40 2 40 2 5 253 c3 140 2 256 -2 259 -5 2 -9 -60
-10 -139z"/>
<path d="M2500 1602 c0 -8 70 -55 75 -50 1 2 -15 15 -36 30 -21 15 -39 24 -39
20z"/>
<path d="M1480 1580 c0 -5 5 -10 10 -10 6 0 10 5 10 10 0 6 -4 10 -10 10 -5 0
-10 -4 -10 -10z"/>
<path d="M2586 1581 c-6 -9 141 -104 162 -104 6 0 10 -2 7 -5 -8 -8 99 -71
110 -65 5 4 7 3 3 -2 -9 -10 93 -76 106 -68 5 3 6 1 2 -5 -6 -11 30 -28 49
-23 6 1 7 -1 3 -5 -9 -8 255 -181 286 -187 6 -1 18 -11 27 -21 9 -11 31 -21
50 -22 24 -1 30 1 19 7 -8 6 -98 62 -200 126 -102 64 -193 117 -202 117 -9 0
-15 3 -12 7 2 4 -33 31 -79 60 -140 90 -317 199 -322 199 -2 0 -6 -4 -9 -9z"/>
<path d="M1218 1573 c6 -2 18 -2 25 0 6 3 1 5 -13 5 -14 0 -19 -2 -12 -5z"/>
<path d="M2402 1539 c-32 -28 -46 -53 -17 -29 9 7 19 9 23 5 4 -4 1 -10 -6
-12 -7 -3 -21 -13 -30 -22 -62 -62 -133 -123 -138 -118 -6 5 71 82 113 112 10
7 16 16 13 19 -7 7 -402 -348 -418 -376 -12 -21 -13 -18 -9 26 4 37 2 45 -5
32 -6 -10 -8 -36 -5 -57 3 -25 1 -37 -5 -33 -6 4 -8 30 -6 61 3 38 2 50 -5 38
-5 -10 -7 -39 -5 -66 3 -27 1 -46 -4 -43 -4 3 -8 12 -8 20 0 8 -5 14 -11 14
-6 0 -2 -15 10 -35 11 -19 16 -37 12 -40 -16 -9 -181 -18 -181 -9 0 5 15 19
33 30 35 23 125 124 110 124 -4 0 -21 -16 -36 -36 -16 -19 -32 -33 -35 -29 -7
6 78 95 91 95 4 0 5 -6 0 -12 -11 -19 -12 -37 -2 -44 8 -5 13 17 12 53 0 6 6
14 13 17 8 3 14 0 14 -7 0 -8 4 -7 10 3 7 11 4 17 -12 23 -11 4 -23 5 -26 2
-3 -3 1 -5 9 -5 11 0 11 -2 -1 -10 -20 -13 -33 -13 -24 1 18 30 -39 -17 -87
-71 -36 -40 -68 -66 -94 -75 -34 -12 -36 -14 -15 -16 23 -1 23 -2 -5 -9 -28
-7 -29 -8 -4 -9 14 0 46 12 72 29 26 16 47 25 47 20 0 -5 -21 -21 -46 -36 -28
-17 -43 -32 -40 -40 4 -10 -4 -14 -27 -14 -18 0 -55 -3 -84 -6 -42 -5 -51 -10
-50 -25 1 -22 17 -26 17 -5 0 13 49 24 110 25 8 0 83 7 165 15 83 9 162 15
178 16 15 0 27 4 27 9 0 4 -11 7 -24 6 -23 -3 -23 -2 -9 26 10 20 22 29 38 29
13 0 29 2 37 5 8 3 18 -6 25 -25 10 -27 9 -30 -10 -30 -11 0 -18 -3 -14 -6 5
-6 289 13 314 21 7 2 10 11 7 20 -6 14 -8 14 -18 1 -8 -12 -41 -17 -129 -21
-126 -7 -147 -1 -147 37 0 18 -5 20 -31 14 -17 -3 -42 -6 -55 -6 -17 0 -24 -6
-24 -20 0 -26 -39 -51 -68 -43 -35 9 -26 22 12 16 25 -4 35 -1 40 12 3 10 4
20 1 23 -3 3 -5 0 -5 -7 0 -7 -5 -9 -12 -5 -7 4 -8 3 -4 -4 5 -8 0 -12 -13
-12 -23 0 -19 25 5 34 8 3 14 12 14 20 0 7 12 17 28 21 15 3 37 16 50 27 l22
21 0 -21 c0 -15 5 -20 15 -16 13 5 10 11 -11 31 l-26 24 23 20 c13 11 50 44
83 72 67 60 100 77 43 23 -21 -20 -42 -36 -46 -36 -4 0 -14 -12 -22 -26 -13
-24 -12 -28 6 -40 46 -31 60 -43 54 -49 -4 -3 -24 4 -45 15 -28 16 -32 16 -15
3 14 -10 34 -26 45 -36 18 -16 16 -16 -16 2 -32 17 -38 18 -38 5 0 -8 4 -13 8
-10 11 6 72 -31 72 -43 0 -6 -4 -13 -10 -16 -5 -3 -7 0 -4 8 3 8 -2 17 -10 20
-11 4 -16 1 -16 -12 0 -30 28 -33 46 -6 9 13 14 30 11 37 -3 8 -6 6 -6 -5 -1
-10 -5 -16 -9 -13 -5 3 -7 19 -4 37 3 19 0 34 -8 39 -16 10 -22 40 -9 40 6 0
16 -15 24 -32 8 -18 14 -26 15 -17 0 23 -25 70 -33 62 -4 -3 -7 -1 -7 5 0 6
12 13 28 15 l27 4 -28 2 c-20 1 -30 -5 -36 -21 -5 -13 -7 -26 -4 -30 7 -13
-12 -9 -25 4 -9 9 -4 20 25 50 37 38 67 53 42 21 -13 -17 -12 -17 6 -4 11 8
35 29 53 45 31 29 34 30 46 13 13 -16 14 -16 19 3 6 24 37 27 37 3 0 -9 3 -14
6 -10 3 3 3 15 -1 27 -6 20 -8 20 -32 5 -13 -9 -27 -15 -29 -12 -6 6 164 157
176 157 5 0 34 -16 64 -35 57 -36 72 -42 61 -25 -3 6 -2 10 4 10 15 0 23 -18
9 -22 -6 -2 30 -30 80 -62 51 -32 94 -61 97 -65 2 -5 -36 -41 -85 -82 -49 -41
-89 -78 -90 -83 0 -6 5 -5 12 2 19 19 33 14 15 -6 -12 -13 -34 -19 -79 -20
-35 -2 -88 -7 -118 -11 -44 -7 -31 -8 66 -7 67 0 120 4 117 9 -2 4 3 7 12 7
12 0 15 -5 11 -16 -3 -9 17 3 44 26 28 24 53 40 56 38 6 -7 -90 -88 -105 -88
-6 0 -11 -4 -11 -10 0 -17 15 -11 40 15 13 14 30 23 38 20 7 -2 10 -1 7 4 -3
5 19 29 49 52 31 24 53 45 51 48 -3 2 -15 -5 -28 -17 -13 -12 -27 -22 -33 -22
-5 1 14 21 41 45 28 25 46 45 40 45 -5 0 -41 -27 -80 -60 -89 -77 -93 -80
-100 -80 -12 0 -4 24 13 36 16 13 16 14 -3 7 -18 -6 -18 -4 4 20 25 28 53 38
31 12 -21 -25 5 -17 30 10 12 13 40 36 62 51 21 15 36 29 34 32 -3 2 -28 -15
-56 -38 -28 -23 -53 -40 -56 -37 -3 3 19 25 49 49 l55 45 -100 63 c-54 34 -97
65 -94 68 3 2 42 -19 87 -47 142 -91 139 -89 104 -55 -16 16 -35 30 -40 30
-16 1 -155 96 -155 106 0 5 -4 7 -9 4 -5 -3 -19 2 -32 12 -34 26 -98 62 -110
62 -6 0 -26 -12 -45 -26 -19 -15 -34 -22 -34 -16 0 6 8 15 17 21 10 5 16 12
13 14 -3 3 -20 -8 -38 -24z m152 -16 c31 -20 54 -38 51 -41 -2 -3 -30 12 -60
32 l-56 37 -120 -108 c-118 -106 -193 -162 -114 -86 78 75 225 203 234 203 5
0 34 -16 65 -37z m-758 -378 c-40 -41 -79 -75 -87 -75 -8 1 -3 7 11 15 14 7
49 41 78 74 30 34 57 61 62 61 5 0 -24 -34 -64 -75z m238 36 c-10 -10 -21 -16
-24 -14 -3 3 4 11 14 19 28 20 33 17 10 -5z"/>
<path d="M1480 1528 c0 -25 3 -29 10 -18 13 20 13 50 0 50 -5 0 -10 -15 -10
-32z"/>
<path d="M1212 1542 c-9 -6 -14 -70 -20 -240 l-7 -232 22 0 c21 0 22 4 25 111
2 61 0 113 -4 116 -5 2 -8 -43 -8 -101 0 -58 -4 -107 -9 -110 -4 -3 -7 54 -5
127 2 73 3 174 4 225 0 50 4 92 9 92 5 0 9 -49 8 -110 -1 -61 1 -110 6 -110 4
0 7 54 7 120 0 66 -3 120 -7 120 -5 0 -14 -4 -21 -8z"/>
<path d="M2590 1545 c0 -7 81 -57 85 -53 2 2 -16 16 -40 31 -25 14 -45 24 -45
22z"/>
<path d="M1539 1338 c-1 -101 -2 -195 -3 -210 -1 -17 3 -28 11 -28 16 0 17 22
1 38 -9 9 -7 13 5 18 15 5 17 27 17 185 0 152 -2 179 -15 179 -13 0 -15 -28
-16 -182z m18 -60 c-2 -13 -4 -5 -4 17 -1 22 1 32 4 23 2 -10 2 -28 0 -40z"/>
<path d="M1582 1338 c-1 -104 1 -188 6 -188 4 0 6 55 4 122 -5 231 -8 253 -10
66z"/>
<path d="M2466 1501 c-16 -17 -15 -18 6 -17 13 1 24 8 26 19 4 22 -11 22 -32
-2z"/>
<path d="M2518 1470 c4 -26 6 -28 16 -15 9 13 18 10 63 -22 29 -20 55 -34 58
-31 5 5 -127 98 -138 98 -2 0 -2 -14 1 -30z"/>
<path d="M2697 1474 c3 -8 10 -14 16 -14 5 0 25 -11 43 -25 18 -14 36 -25 40
-25 4 0 16 -7 26 -17 10 -9 20 -14 23 -11 3 3 -30 28 -74 56 -44 28 -77 44
-74 36z"/>
<path d="M1386 1445 c-3 -8 -1 -15 4 -15 6 0 10 7 10 15 0 8 -2 15 -4 15 -2 0
-6 -7 -10 -15z"/>
<path d="M1414 1452 c10 -16 -12 -44 -28 -35 -6 3 -2 -3 9 -14 20 -20 20 -20
27 11 4 18 2 35 -4 41 -8 7 -9 6 -4 -3z"/>
<path d="M2481 1444 c0 -11 3 -14 6 -6 3 7 2 16 -1 19 -3 4 -6 -2 -5 -13z"/>
<path d="M1298 1443 c7 -3 16 -2 19 1 4 3 -2 6 -13 5 -11 0 -14 -3 -6 -6z"/>
<path d="M2399 1430 l-24 -20 28 11 c15 7 27 16 27 21 0 12 -5 10 -31 -12z"/>
<path d="M1295 1419 c-4 -6 -4 -13 -1 -16 8 -8 36 5 36 17 0 13 -27 13 -35 -1z"/>
<path d="M1340 1414 c0 -8 5 -12 10 -9 6 3 10 10 10 16 0 5 -4 9 -10 9 -5 0
-10 -7 -10 -16z"/>
<path d="M2521 1368 c-1 -38 3 -68 7 -68 5 0 7 26 5 58 -6 83 -11 87 -12 10z"/>
<path d="M2391 1384 c0 -11 3 -14 6 -6 3 7 2 16 -1 19 -3 4 -6 -2 -5 -13z"/>
<path d="M2676 1386 c3 -9 10 -16 16 -16 5 0 24 -10 43 -23 l34 -23 -33 -26
c-23 -18 -37 -23 -43 -17 -7 7 -10 2 -10 -15 0 -30 5 -28 66 25 l42 37 -38 23
c-21 12 -48 29 -61 37 -20 13 -22 13 -16 -2z"/>
<path d="M1274 1376 c-3 -7 -3 -40 -1 -72 l3 -59 2 67 c2 60 4 67 25 71 l22 4
-23 2 c-12 0 -25 -5 -28 -13z"/>
<path d="M1330 1379 c0 -5 5 -7 10 -4 6 3 10 8 10 11 0 2 -4 4 -10 4 -5 0 -10
-5 -10 -11z"/>
<path d="M1357 1369 c-4 -16 0 -19 34 -19 22 0 39 5 39 11 0 7 -9 9 -21 6 -14
-4 -19 -1 -16 7 3 6 -3 13 -13 13 -10 1 -20 -7 -23 -18z"/>
<path d="M2481 1374 c0 -11 3 -14 6 -6 3 7 2 16 -1 19 -3 4 -6 -2 -5 -13z"/>
<path d="M2860 1370 c0 -5 5 -10 11 -10 5 0 7 5 4 10 -3 6 -8 10 -11 10 -2 0
-4 -4 -4 -10z"/>
<path d="M1290 1350 c0 -14 5 -18 18 -13 31 11 34 15 21 24 -23 14 -39 10 -39
-11z"/>
<path d="M2894 1351 c4 -6 16 -16 28 -22 15 -8 18 -8 14 0 -4 6 -16 16 -28 22
-15 8 -18 8 -14 0z"/>
<path d="M2278 1328 c-7 -13 -11 -26 -10 -29 1 -4 -9 -5 -21 -2 -15 4 -19 2
-12 -5 10 -10 36 -16 63 -13 6 0 12 9 12 19 0 14 -2 15 -10 2 -7 -12 -12 -12
-22 -2 -10 10 -8 14 10 18 12 4 22 13 22 20 0 21 -18 17 -32 -8z"/>
<path d="M2401 1334 c0 -11 3 -14 6 -6 3 7 2 16 -1 19 -3 4 -6 -2 -5 -13z"/>
<path d="M1358 1321 l-68 -14 0 -114 0 -113 28 1 c26 0 26 1 5 9 -21 9 -23 15
-23 97 0 48 4 93 8 99 7 11 74 34 99 34 9 0 12 -28 11 -100 -1 -55 -4 -104 -7
-109 -3 -5 -20 -11 -36 -14 -27 -4 -27 -4 7 -6 47 -1 50 8 46 144 l-3 100 -67
-14z"/>
<path d="M2378 1315 c-3 -14 -1 -25 3 -25 5 0 9 11 9 25 0 14 -2 25 -4 25 -2
0 -6 -11 -8 -25z"/>
<path d="M2608 1313 c6 -2 18 -2 25 0 6 3 1 5 -13 5 -14 0 -19 -2 -12 -5z"/>
<path d="M2400 1300 c0 -5 5 -10 10 -10 6 0 10 5 10 10 0 6 -4 10 -10 10 -5 0
-10 -4 -10 -10z"/>
<path d="M2475 1282 c-18 -2 -36 -12 -44 -24 -12 -20 -11 -24 13 -45 l27 -22
-27 -7 c-17 -4 -31 -1 -41 9 -13 13 -13 17 2 40 9 14 12 28 7 31 -11 6 -32
-36 -32 -64 0 -12 9 -20 28 -24 34 -7 141 -1 150 9 4 4 -7 6 -24 3 -16 -2 -34
0 -40 4 -49 40 -67 59 -51 54 10 -3 16 -2 12 3 -13 22 111 30 162 10 23 -9 29
-3 15 16 -7 10 -93 13 -157 7z"/>
<path d="M2653 1250 c0 -25 2 -35 4 -22 2 12 2 32 0 45 -2 12 -4 2 -4 -23z"/>
<path d="M2930 1285 c0 -2 23 -17 50 -35 54 -34 63 -45 29 -35 -15 5 -19 4
-15 -4 4 -6 3 -11 -3 -11 -5 0 -13 5 -16 10 -16 26 -25 4 -25 -60 0 -58 3 -70
16 -70 13 0 14 3 5 14 -7 8 -11 35 -9 61 l3 47 65 -43 c36 -24 83 -53 104 -64
l37 -20 -43 -5 c-43 -6 -43 -6 17 -11 33 -3 61 -4 63 -3 1 1 -45 32 -103 69
-58 37 -104 70 -101 73 3 3 23 -6 43 -20 104 -68 203 -127 203 -121 0 5 -19
18 -41 31 -22 13 -38 26 -35 29 3 3 28 -9 57 -26 40 -25 60 -31 93 -29 l41 3
-50 29 c-27 16 -61 36 -75 45 -38 23 -19 5 36 -34 40 -29 45 -35 26 -35 -12 0
-59 25 -104 56 -44 30 -103 66 -129 80 -27 13 -49 29 -49 34 0 6 -6 10 -14 10
-7 0 -19 6 -25 14 -10 12 -51 29 -51 21z m177 -116 c35 -23 62 -44 59 -46 -4
-5 -136 76 -136 83 0 10 18 1 77 -37z"/>
<path d="M3019 1272 c14 -11 38 -27 55 -37 l31 -17 -24 20 c-14 11 -38 27 -55
37 l-31 17 24 -20z"/>
<path d="M2905 1270 c-3 -5 -1 -10 4 -10 6 0 11 5 11 10 0 6 -2 10 -4 10 -3 0
-8 -4 -11 -10z"/>
<path d="M2225 1261 c-16 -6 -14 -9 15 -14 22 -5 48 -23 76 -53 35 -39 45 -45
60 -35 11 6 13 11 7 11 -7 0 -38 23 -68 50 -58 53 -59 53 -90 41z"/>
<path d="M2327 1246 c16 -14 30 -20 32 -14 4 13 -26 38 -46 38 -8 0 -2 -11 14
-24z"/>
<path d="M2375 1259 c-4 -6 -5 -12 -2 -15 2 -3 7 2 10 11 7 17 1 20 -8 4z"/>
<path d="M2875 1261 c-3 -5 -1 -12 5 -16 5 -3 10 1 10 9 0 18 -6 21 -15 7z"/>
<path d="M2932 1168 l2 -93 3 83 c4 75 12 98 28 72 3 -5 12 -10 18 -10 13 0
-32 39 -45 40 -5 0 -7 -42 -6 -92z"/>
<path d="M1947 1231 c-4 -17 -3 -21 5 -13 5 5 8 16 6 23 -3 8 -7 3 -11 -10z"/>
<path d="M2848 1243 c-2 -5 -1 -26 3 -48 l6 -40 2 48 c1 44 -3 57 -11 40z"/>
<path d="M2911 1240 c-2 -8 -3 -43 -2 -77 1 -65 -8 -79 -27 -40 -11 22 -11 22
-11 -5 -1 -19 5 -29 20 -33 11 -4 23 -5 25 -2 3 2 3 42 1 88 -1 46 -4 77 -6
69z"/>
<path d="M2225 1223 c4 -10 10 -31 13 -48 4 -26 6 -27 12 -10 4 11 3 26 -3 33
-5 7 -7 15 -3 19 3 4 28 -14 54 -39 48 -47 92 -75 92 -60 0 4 -16 16 -35 25
-18 9 -42 28 -51 42 -15 23 -61 55 -80 55 -3 0 -3 -8 1 -17z"/>
<path d="M2484 1225 c22 -17 67 -20 82 -6 5 5 20 11 34 14 14 2 -11 5 -55 5
-72 1 -78 0 -61 -13z m53 -1 c-3 -3 -12 -4 -19 -1 -8 3 -5 6 6 6 11 1 17 -2
13 -5z"/>
<path d="M2601 1209 c-27 -15 -31 -20 -18 -25 9 -3 14 -11 11 -18 -4 -6 6 1
21 15 37 36 29 51 -14 28z"/>
<path d="M2877 1191 c-4 -19 -5 -36 -2 -39 10 -11 16 7 13 40 l-3 33 -8 -34z"/>
<path d="M3137 1199 c12 -15 73 -53 73 -46 0 2 -19 17 -42 32 -24 16 -38 22
-31 14z"/>
<path d="M2780 1158 c-25 -23 -48 -42 -52 -43 -4 0 -13 -6 -20 -13 -10 -10 1
-12 55 -11 l67 2 0 53 c0 30 -1 54 -3 54 -1 0 -22 -19 -47 -42z m40 -23 c0
-33 -2 -34 -30 -31 -43 5 -45 10 -13 40 37 34 43 33 43 -9z"/>
<path d="M1162 1138 l-2 -47 -35 6 c-26 4 -41 1 -55 -12 -24 -21 -26 -35 -5
-35 8 0 12 6 9 14 -8 20 27 29 61 16 15 -6 30 -9 32 -6 2 2 2 28 0 57 l-3 54
-2 -47z"/>
<path d="M3545 1168 c-55 -5 -113 -13 -130 -18 l-30 -9 30 4 c17 2 76 7 133
11 56 3 105 10 108 15 3 5 2 8 -3 7 -4 0 -53 -5 -108 -10z"/>
<path d="M2045 1160 c-3 -5 -1 -10 4 -10 6 0 11 5 11 10 0 6 -2 10 -4 10 -3 0
-8 -4 -11 -10z"/>
<path d="M2558 1163 c7 -3 16 -2 19 1 4 3 -2 6 -13 5 -11 0 -14 -3 -6 -6z"/>
<path d="M3688 1158 c12 -6 22 -18 22 -26 0 -12 -4 -12 -20 3 -19 17 -28 17
-147 6 -70 -7 -130 -14 -132 -17 -7 -7 31 -5 140 7 102 11 149 4 149 -21 0 -7
-7 -6 -19 2 -15 11 -44 12 -137 5 -66 -5 -121 -10 -123 -13 -12 -11 13 -12
111 -2 124 13 162 7 153 -22 -4 -11 -2 -20 3 -20 5 0 15 19 22 41 13 38 12 43
-5 55 -10 8 -24 14 -29 13 -6 0 -1 -5 12 -11z"/>
<path d="M2395 1150 c-13 -6 -1 -7 35 -3 30 3 57 7 59 9 9 8 -75 2 -94 -6z"/>
<path d="M1583 1128 c26 -21 63 -22 97 -4 l25 14 -35 6 c-19 3 -52 4 -72 3
l-38 -2 23 -17z m58 -1 c-7 -7 -14 -8 -21 -1 -6 6 -2 10 12 11 16 2 18 -1 9
-10z"/>
<path d="M2046 1138 c-64 -8 -87 -18 -40 -17 49 1 120 14 109 20 -5 3 -37 2
-69 -3z"/>
<path d="M2848 1120 c-3 -16 -1 -30 4 -30 4 0 8 14 8 30 0 17 -2 30 -4 30 -2
0 -6 -13 -8 -30z"/>
<path d="M2137 1112 c3 -23 2 -24 -6 -7 -8 16 -10 16 -10 4 -1 -21 24 -43 41
-36 9 4 8 6 -3 6 -12 1 -15 8 -12 25 3 13 1 26 -5 30 -5 3 -8 -6 -5 -22z"/>
<path d="M2218 1099 c-9 -16 -14 -29 -9 -29 8 0 34 50 29 56 -2 1 -11 -11 -20
-27z"/>
<path d="M2468 1113 c-32 -2 -58 -8 -58 -13 0 -9 91 -3 150 10 l35 8 -35 -1
c-19 0 -61 -2 -92 -4z"/>
<path d="M2614 1105 c18 -14 15 -15 -35 -15 -30 0 -78 -3 -106 -6 l-53 -7 0
-83 0 -84 110 3 c100 2 110 4 110 21 0 14 -3 16 -13 8 -6 -6 -53 -12 -102 -14
l-90 -3 -3 71 -3 71 47 7 c87 12 122 8 129 -14 3 -11 11 -20 16 -20 6 0 8 -4
4 -9 -3 -6 43 -10 117 -10 75 0 175 -8 255 -20 139 -22 206 -25 341 -14 71 5
82 8 82 24 0 16 -8 19 -52 17 l-53 -1 50 -7 c58 -8 57 -9 -10 -15 -119 -10
-276 -6 -375 10 -58 10 -153 18 -211 19 -59 0 -102 4 -95 8 6 4 -3 8 -20 8
-40 0 -48 9 -27 32 15 17 15 20 3 28 -24 15 -37 11 -16 -5z"/>
<path d="M1610 1090 c-12 -8 -10 -9 7 -7 12 2 26 6 29 10 11 11 -19 8 -36 -3z"/>
<path d="M3656 1056 c5 -33 3 -46 -5 -46 -7 0 -9 -4 -6 -10 3 -5 10 -10 16
-10 12 0 12 97 -1 105 -6 4 -7 -11 -4 -39z"/>
<path d="M1515 1085 c-5 -2 -54 -7 -108 -10 -53 -4 -95 -11 -92 -15 3 -5 15
-7 28 -4 47 11 147 13 148 4 3 -20 4 -25 11 -36 11 -16 -1 -24 -36 -25 -17 0
-89 -17 -161 -38 -115 -34 -131 -36 -137 -22 -5 12 -7 11 -7 -6 -1 -28 -2 -28
79 -3 36 12 77 18 95 15 23 -4 25 -3 10 4 -19 8 -19 9 5 15 74 18 118 26 148
26 36 0 38 4 17 40 -19 33 -18 40 3 40 9 0 24 5 32 10 12 8 11 10 -5 9 -11 0
-24 -2 -30 -4z"/>
<path d="M2996 1079 c3 -5 19 -9 36 -9 39 0 34 6 -10 13 -18 3 -30 1 -26 -4z"/>
<path d="M3548 1083 c17 -2 47 -2 65 0 17 2 3 4 -33 4 -36 0 -50 -2 -32 -4z"/>
<path d="M2723 1073 c26 -2 67 -2 90 0 23 2 2 3 -48 3 -49 0 -68 -1 -42 -3z"/>
<path d="M3437 1048 c8 -44 13 -48 13 -10 0 21 6 32 18 35 10 3 7 5 -10 6 -26
1 -27 -1 -21 -31z"/>
<path d="M1098 1063 c7 -3 16 -2 19 1 4 3 -2 6 -13 5 -11 0 -14 -3 -6 -6z"/>
<path d="M1568 1063 c6 -2 18 -2 25 0 6 3 1 5 -13 5 -14 0 -19 -2 -12 -5z"/>
<path d="M2910 1060 l55 -7 -60 -2 c-33 -1 -54 -5 -47 -8 8 -3 53 -2 100 3 87
8 87 8 37 15 -27 4 -70 7 -95 6 -45 0 -45 0 10 -7z"/>
<path d="M1223 1053 c15 -2 39 -2 55 0 15 2 2 4 -28 4 -30 0 -43 -2 -27 -4z"/>
<path d="M2728 1053 c23 -2 59 -2 80 0 20 2 1 4 -43 4 -44 0 -61 -2 -37 -4z"/>
<path d="M1030 1034 c0 -12 9 -32 20 -45 17 -21 19 -21 13 -4 -4 11 -13 31
-20 45 -12 23 -13 24 -13 4z"/>
<path d="M1107 1043 c7 -3 14 -3 16 -1 8 8 36 -32 40 -58 2 -16 4 -8 3 18 l-1
47 -35 -1 c-19 -1 -29 -3 -23 -5z"/>
<path d="M1588 1043 c12 -2 30 -2 40 0 9 3 -1 5 -23 4 -22 0 -30 -2 -17 -4z"/>
<path d="M2343 1043 c15 -2 37 -2 50 0 12 2 0 4 -28 4 -27 0 -38 -2 -22 -4z"/>
<path d="M3117 1036 c42 -5 108 -5 160 1 84 8 81 9 -72 8 -141 0 -151 -1 -88
-9z"/>
<path d="M4285 1018 c-38 -16 -88 -37 -110 -47 -22 -10 -67 -29 -100 -42 -33
-13 -62 -26 -65 -29 -15 -15 -83 -34 -136 -37 -57 -4 -66 -2 -121 33 l-60 37
5 44 c3 30 1 43 -7 43 -9 0 -11 -9 -6 -29 4 -21 2 -32 -10 -38 -13 -8 0 -20
64 -61 l81 -51 63 8 c44 6 120 34 260 95 151 66 208 86 242 86 25 0 45 3 45 8
0 17 -80 6 -145 -20z"/>
<path d="M4460 1041 c8 -5 94 -36 190 -70 96 -34 185 -66 198 -71 28 -12 139
-12 167 0 12 5 -11 7 -60 5 -67 -2 -92 2 -160 26 -135 50 -338 119 -344 119
-3 0 1 -4 9 -9z"/>
<path d="M1060 1030 c0 -5 9 -10 21 -10 11 0 17 5 14 10 -3 6 -13 10 -21 10
-8 0 -14 -4 -14 -10z"/>
<path d="M1612 1030 c-34 -4 -66 -11 -70 -15 -4 -4 4 -5 18 -2 14 4 49 7 78 7
28 0 52 5 52 10 0 6 -3 9 -7 9 -5 -1 -36 -5 -71 -9z"/>
<path d="M2233 1033 c15 -2 39 -2 55 0 15 2 2 4 -28 4 -30 0 -43 -2 -27 -4z"/>
<path d="M2971 1036 c2 -2 31 -6 64 -9 39 -4 50 -3 30 2 -31 9 -102 14 -94 7z"/>
<path d="M2123 1023 c15 -2 39 -2 55 0 15 2 2 4 -28 4 -30 0 -43 -2 -27 -4z"/>
<path d="M2348 1023 c12 -2 32 -2 45 0 12 2 2 4 -23 4 -25 0 -35 -2 -22 -4z"/>
<path d="M770 987 c-33 -19 -55 -39 -55 -50 0 -10 -13 -26 -28 -36 -16 -10
-37 -33 -48 -50 -10 -17 -33 -40 -51 -51 -24 -15 -28 -20 -14 -20 10 0 35 17
54 38 20 20 33 29 29 20 -10 -27 -1 -22 24 15 23 32 23 32 1 13 -12 -11 -22
-14 -22 -8 0 14 49 52 66 52 8 0 14 5 14 10 0 6 -4 10 -10 10 -5 0 -10 5 -10
10 0 13 27 13 35 -1 4 -5 10 -34 14 -62 6 -50 5 -53 -26 -80 -18 -16 -33 -24
-33 -19 0 6 5 14 11 17 6 4 8 14 5 22 -8 21 4 39 15 22 6 -10 9 -4 9 18 0 17
-4 34 -9 37 -5 4 -8 -2 -6 -11 1 -10 -4 -25 -12 -34 -7 -9 -13 -21 -11 -26 2
-5 -6 -26 -17 -46 -16 -31 -25 -37 -52 -37 -35 0 -44 14 -17 24 9 4 14 9 11
13 -4 3 -1 13 6 22 11 14 10 14 -5 2 -10 -7 -15 -18 -11 -24 4 -6 0 -8 -9 -5
-11 5 -15 0 -14 -15 1 -18 8 -23 42 -25 36 -3 42 0 47 20 4 12 9 19 13 15 4
-4 13 -2 21 4 17 15 16 -1 -1 -24 -11 -14 -15 -15 -20 -5 -3 7 -3 1 0 -13 5
-24 2 -27 -36 -33 -26 -4 -47 -2 -55 4 -11 9 -12 7 -8 -10 4 -16 11 -20 27
-16 11 3 33 6 48 6 22 0 31 7 41 33 8 17 26 44 41 59 15 15 25 32 21 38 -3 5
0 10 7 10 8 0 9 3 3 8 -5 4 -12 16 -13 26 -3 17 -2 18 12 7 9 -8 20 -11 24 -7
4 4 -1 12 -11 17 -9 6 -17 21 -17 34 0 40 48 73 65 44 4 -6 14 -8 23 -4 13 5
12 2 -3 -15 -15 -16 -15 -20 -3 -20 8 0 20 10 25 23 10 22 8 24 -34 36 -42 13
-45 12 -69 -10 -16 -15 -28 -19 -34 -13 -14 14 17 42 58 53 24 7 40 5 69 -10
20 -10 45 -19 55 -19 10 0 18 -4 18 -9 0 -10 108 -36 116 -28 3 3 -19 10 -48
17 -29 7 -61 19 -70 28 -10 8 -18 12 -18 9 0 -4 -23 2 -50 13 -28 11 -54 20
-58 20 -4 0 -32 -15 -62 -33z m0 -192 c-7 -8 -17 -15 -22 -15 -6 0 -5 7 2 15
7 8 17 15 22 15 6 0 5 -7 -2 -15z"/>
<path d="M2008 1013 c12 -2 32 -2 45 0 12 2 2 4 -23 4 -25 0 -35 -2 -22 -4z"/>
<path d="M2243 1013 c15 -2 37 -2 50 0 12 2 0 4 -28 4 -27 0 -38 -2 -22 -4z"/>
<path d="M3153 1013 c26 -2 67 -2 90 0 23 2 2 3 -48 3 -49 0 -68 -1 -42 -3z"/>
<path d="M4162 937 l-192 -82 66 -3 c37 -2 71 1 77 7 6 6 -5 7 -32 4 -22 -3
-41 -3 -41 0 0 6 61 36 140 68 30 12 80 34 110 48 43 20 70 26 126 26 39 0 82
-5 95 -11 35 -17 133 -54 141 -54 4 0 19 -5 35 -12 31 -13 38 -15 53 -17 6 0
10 -5 10 -10 0 -5 -39 -10 -86 -10 -48 0 -89 -3 -92 -6 -9 -9 222 -5 237 4 10
7 8 10 -10 16 -13 4 -94 31 -180 61 -214 75 -214 75 -457 -29z"/>
<path d="M1095 1000 c-30 -8 -30 -8 8 -9 23 -1 36 3 32 9 -3 6 -7 9 -8 9 -1
-1 -15 -5 -32 -9z"/>
<path d="M1800 1001 c-30 -3 19 -6 110 -6 110 0 143 2 100 6 -77 8 -135 8
-210 0z"/>
<path d="M2103 1003 c15 -2 39 -2 55 0 15 2 2 4 -28 4 -30 0 -43 -2 -27 -4z"/>
<path d="M2384 995 c8 -8 17 -15 20 -15 3 0 6 7 6 15 0 9 -9 15 -21 15 -18 0
-19 -2 -5 -15z"/>
<path d="M2635 989 c-4 -11 -4 -23 -1 -26 3 -4 6 1 6 10 0 21 16 30 41 22 15
-5 18 -10 10 -14 -7 -5 25 -21 75 -39 48 -18 89 -30 92 -28 2 2 -13 9 -34 16
-27 9 -33 15 -23 21 9 6 4 8 -16 3 -23 -4 -27 -3 -15 5 12 9 9 10 -15 6 -24
-4 -26 -3 -10 4 19 9 19 10 1 10 -11 1 -17 4 -13 7 3 3 26 -1 51 -9 45 -15 46
-15 46 5 0 19 -4 20 -65 16 -36 -3 -65 -2 -65 3 0 5 -13 9 -29 9 -21 0 -32 -6
-36 -21z m92 -15 c-3 -3 -12 -4 -19 -1 -8 3 -5 6 6 6 11 1 17 -2 13 -5z"/>
<path d="M3545 998 c-122 -11 -132 -17 -20 -11 92 5 115 8 104 16 -2 2 -40 -1
-84 -5z"/>
<path d="M2255 991 c-3 -6 10 -7 32 -4 50 8 55 13 10 13 -20 0 -38 -4 -42 -9z"/>
<path d="M2841 983 c-1 -12 4 -25 9 -28 12 -7 12 2 0 30 -8 19 -9 19 -9 -2z"/>
<path d="M1715 980 c19 -8 113 -14 104 -6 -2 2 -31 6 -64 9 -36 3 -52 2 -40
-3z"/>
<path d="M1888 983 c12 -2 32 -2 45 0 12 2 2 4 -23 4 -25 0 -35 -2 -22 -4z"/>
<path d="M2112 981 c-8 -5 10 -7 44 -4 32 2 60 6 63 8 8 9 -94 5 -107 -4z"/>
<path d="M2870 965 c0 -14 -5 -25 -12 -25 -6 0 -9 -2 -6 -5 11 -12 38 8 39 29
l0 21 11 -22 c12 -24 4 -58 -12 -48 -15 9 -23 -41 -11 -72 11 -28 11 -28 5 5
-7 38 11 68 31 52 14 -12 82 -17 92 -7 3 4 -15 7 -40 7 l-47 0 0 45 c0 41 -2
45 -25 45 -20 0 -25 -5 -25 -25z"/>
<path d="M2931 963 c-1 -30 2 -33 27 -32 22 1 23 2 5 6 -14 3 -23 13 -26 31
-4 24 -4 24 -6 -5z"/>
<path d="M1103 973 c15 -2 25 -8 23 -12 -3 -4 -1 -21 4 -37 8 -27 8 -27 9 14
1 41 0 42 -31 41 -31 -2 -31 -2 -5 -6z"/>
<path d="M1483 973 c9 -2 25 -2 35 0 9 3 1 5 -18 5 -19 0 -27 -2 -17 -5z"/>
<path d="M1850 963 c-103 -10 -140 -11 -155 -2 -19 11 -19 11 -3 -8 17 -19 23
-19 115 -7 54 7 138 15 187 18 50 4 92 9 95 11 7 8 -96 3 -239 -12z"/>
<path d="M2956 966 c7 -18 40 -20 114 -7 36 7 39 9 15 10 -16 1 -54 4 -83 8
-46 5 -52 4 -46 -11z"/>
<path d="M3500 970 c-100 -7 -101 -11 -6 -14 44 -1 71 -6 74 -14 2 -7 8 -12
14 -12 6 0 6 6 -2 15 -16 20 6 28 59 23 22 -2 37 0 35 4 -5 8 -38 8 -174 -2z"/>
<path d="M1423 963 c9 -2 23 -2 30 0 6 3 -1 5 -18 5 -16 0 -22 -2 -12 -5z"/>
<path d="M2660 949 c0 -11 -1 -22 -2 -26 -1 -5 7 -9 18 -10 10 -2 13 0 7 3
-11 5 -20 35 -10 34 1 0 38 -13 81 -29 45 -16 74 -31 67 -35 -6 -4 -27 -2 -47
4 -19 7 -37 10 -40 7 -3 -2 17 -12 44 -20 26 -9 55 -19 64 -22 12 -5 14 -1 11
18 -4 21 -20 30 -99 60 -86 32 -94 33 -94 16z m180 -69 c0 -5 -5 -10 -11 -10
-5 0 -7 5 -4 10 3 6 8 10 11 10 2 0 4 -4 4 -10z"/>
<path d="M3205 960 c-17 -5 8 -6 60 -3 50 3 92 7 94 9 8 7 -124 2 -154 -6z"/>
<path d="M912 940 c-10 -17 -10 -20 3 -20 8 0 15 6 15 14 0 8 6 17 13 19 8 4
7 6 -3 6 -8 1 -21 -8 -28 -19z"/>
<path d="M1378 953 c7 -3 16 -2 19 1 4 3 -2 6 -13 5 -11 0 -14 -3 -6 -6z"/>
<path d="M1441 949 c-64 -11 -164 -39 -158 -45 2 -2 27 3 56 12 53 15 78 12
51 -7 -12 -8 -11 -9 5 -5 11 3 46 8 78 12 47 5 57 10 57 25 0 21 -6 21 -89 8z
m69 -12 c-10 -8 -80 -16 -80 -8 0 4 19 8 42 10 23 1 40 0 38 -2z"/>
<path d="M2215 949 l-60 -6 60 0 c33 0 92 3 130 7 l70 7 -70 -1 c-38 0 -97 -3
-130 -7z"/>
<path d="M3335 950 l-70 -6 78 -2 c50 -1 76 2 72 8 -3 6 -7 9 -8 8 -1 -1 -33
-4 -72 -8z"/>
<path d="M3603 953 c9 -2 25 -2 35 0 9 3 1 5 -18 5 -19 0 -27 -2 -17 -5z"/>
<path d="M816 934 c-21 -21 -20 -24 9 -24 15 0 25 6 25 14 0 23 -17 28 -34 10z"/>
<path d="M3095 939 c21 -6 9 -7 -40 -4 -53 4 -66 2 -52 -6 12 -7 57 -8 133 -3
63 4 113 8 112 9 -2 1 -43 5 -93 8 -58 3 -79 2 -60 -4z"/>
<path d="M1945 930 c-24 -6 -18 -8 29 -9 33 0 57 1 55 3 -11 9 -57 12 -84 6z"/>
<path d="M2083 933 c15 -2 37 -2 50 0 12 2 0 4 -28 4 -27 0 -38 -2 -22 -4z"/>
<path d="M2348 933 c12 -2 32 -2 45 0 12 2 2 4 -23 4 -25 0 -35 -2 -22 -4z"/>
<path d="M3395 930 l-50 -6 49 -5 c63 -5 73 -26 14 -32 l-43 -4 48 -1 c44 -2
47 0 47 22 0 31 -4 33 -65 26z"/>
<path d="M3517 928 c-7 -23 5 -48 24 -48 10 0 21 -4 24 -10 3 -5 10 -10 16
-10 12 0 12 47 0 54 -5 4 -7 -3 -4 -15 5 -19 3 -20 -18 -14 -31 10 -33 11 -25
30 3 9 11 13 17 9 8 -4 9 -3 5 4 -10 16 -33 15 -39 0z"/>
<path d="M5520 930 c-55 -7 -55 -7 23 -8 l77 -2 0 -84 c0 -47 3 -87 8 -89 11
-8 2 166 -10 180 -6 7 -18 12 -27 11 -9 -1 -41 -4 -71 -8z"/>
<path d="M948 923 c7 -3 16 -2 19 1 4 3 -2 6 -13 5 -11 0 -14 -3 -6 -6z"/>
<path d="M1008 925 c-3 -3 -25 -10 -49 -15 l-44 -9 46 3 c26 2 54 -1 63 -6 10
-6 16 -5 16 2 0 5 -7 10 -16 10 -8 0 -12 5 -9 10 7 11 2 14 -7 5z"/>
<path d="M1792 919 c-51 -4 -96 -9 -98 -12 -5 -5 208 3 214 8 10 8 -35 10
-116 4z"/>
<path d="M2221 926 c2 -2 45 -6 94 -9 66 -4 77 -3 40 3 -52 9 -141 13 -134 6z"/>
<path d="M3481 720 c1 -148 5 -210 13 -210 8 0 10 59 8 210 -2 125 -7 210 -12
210 -6 0 -9 -82 -9 -210z"/>
<path d="M3624 690 c0 -135 2 -190 3 -122 2 67 2 177 0 245 -1 67 -3 12 -3
-123z"/>
<path d="M3652 914 c4 -21 107 -86 122 -77 6 3 8 2 3 -2 -9 -11 94 -76 108
-68 5 4 7 3 3 -2 -11 -12 131 -100 143 -88 6 6 -27 32 -91 73 -55 34 -99 65
-96 68 3 2 46 -20 95 -51 49 -30 87 -49 85 -42 -3 7 -19 19 -35 25 -16 7 -46
26 -66 41 l-36 29 29 1 c16 1 88 5 159 9 l130 7 -130 0 c-71 0 -157 -3 -190
-7 -48 -6 -65 -3 -89 11 -16 9 -36 15 -44 11 -9 -3 -13 -1 -9 5 9 14 -40 46
-55 37 -7 -4 -8 -3 -4 4 3 6 -3 16 -15 22 -18 10 -20 9 -17 -6z"/>
<path d="M5335 920 l-110 -6 118 -2 c77 -1 116 2 112 8 -3 6 -7 9 -8 8 -1 -1
-51 -5 -112 -8z"/>
<path d="M1215 910 c-15 -6 -11 -8 16 -7 21 1 35 5 32 10 -5 9 -22 8 -48 -3z"/>
<path d="M1540 910 c0 -5 5 -10 11 -10 5 0 7 5 4 10 -3 6 -8 10 -11 10 -2 0
-4 -4 -4 -10z"/>
<path d="M2140 910 c30 -5 73 -8 95 -8 39 1 38 1 -10 8 -27 5 -70 8 -95 8
l-45 -1 55 -7z"/>
<path d="M2943 913 c9 -2 23 -2 30 0 6 3 -1 5 -18 5 -16 0 -22 -2 -12 -5z"/>
<path d="M3100 910 c-62 -5 -73 -7 -40 -9 25 -2 49 -3 53 -2 5 1 56 4 115 7
59 3 109 8 111 10 6 5 -132 2 -239 -6z"/>
<path d="M1070 888 c0 -19 2 -20 10 -8 13 19 13 30 0 30 -5 0 -10 -10 -10 -22z"/>
<path d="M1985 900 c33 -4 83 -8 110 -8 l50 1 -45 8 c-25 4 -74 7 -110 7 l-65
-1 60 -7z"/>
<path d="M2575 900 l-30 -8 33 -1 c17 0 32 4 32 9 0 6 -1 9 -2 9 -2 -1 -16 -5
-33 -9z"/>
<path d="M5098 903 c23 -2 59 -2 80 0 20 2 1 4 -43 4 -44 0 -61 -2 -37 -4z"/>
<path d="M5545 900 c4 -6 15 -8 25 -5 12 4 20 0 23 -12 4 -14 5 -13 6 5 1 18
-4 22 -30 22 -18 0 -28 -4 -24 -10z"/>
<path d="M828 893 c6 -2 18 -2 25 0 6 3 1 5 -13 5 -14 0 -19 -2 -12 -5z"/>
<path d="M1161 891 c-11 -7 -11 -9 0 -14 8 -3 9 -6 2 -6 -6 -1 -9 -10 -6 -20
4 -17 9 -18 31 -10 14 6 38 7 52 4 17 -4 21 -3 11 3 -11 8 -11 11 0 16 15 6
-33 -1 -63 -10 -10 -3 -18 -1 -18 5 0 5 8 12 18 14 14 4 14 5 -3 6 -17 1 -18
3 -5 11 8 5 11 10 5 10 -5 0 -16 -4 -24 -9z"/>
<path d="M1300 886 l-35 -13 47 1 c25 1 41 4 36 7 -6 4 -3 9 8 12 18 4 18 5
-1 5 -11 0 -36 -5 -55 -12z"/>
<path d="M1460 885 c-63 -10 -65 -11 -67 -40 -2 -28 -1 -28 5 -5 6 19 17 26
47 32 74 13 77 12 70 -24 -4 -18 -13 -38 -21 -44 -7 -6 -42 -37 -77 -70 -161
-149 -238 -219 -251 -226 -22 -12 -19 222 3 239 9 7 11 13 5 13 -26 0 -33 -31
-36 -162 l-3 -137 27 26 c15 15 30 24 33 21 3 -3 -9 -19 -27 -35 -35 -31 -46
-53 -26 -53 6 0 4 -8 -6 -19 -16 -17 -16 -19 1 -25 9 -4 14 -4 10 0 -8 9 11
34 27 34 6 0 4 -5 -4 -10 -10 -7 -11 -10 -2 -10 15 0 26 25 17 40 -5 8 -11 8
-21 -1 -8 -6 -14 -7 -14 -2 0 8 171 167 285 266 17 14 27 28 23 32 -3 3 -61
-44 -128 -105 -67 -62 -124 -110 -126 -107 -6 5 50 59 189 182 48 43 87 81 87
84 0 4 14 15 30 24 39 24 38 11 -2 -25 -17 -15 -26 -28 -19 -28 7 0 28 15 47
34 19 19 45 37 57 39 12 2 7 4 -13 4 -50 0 -60 2 -60 11 0 4 12 7 28 8 122 1
132 3 132 26 0 20 -1 21 -13 4 -11 -14 -24 -17 -65 -15 -29 2 -52 1 -52 -3 0
-19 -19 -6 -22 15 -3 22 -4 23 -68 12z"/>
<path d="M1850 890 c46 -9 167 -13 159 -6 -2 2 -49 6 -104 9 -71 4 -87 3 -55
-3z"/>
<path d="M2330 888 c0 -4 14 -5 30 -3 18 2 36 -3 45 -11 21 -22 20 -71 -2 -77
-12 -3 -10 -5 7 -6 23 -1 25 2 23 40 0 26 -7 45 -20 54 -18 15 -83 17 -83 3z"/>
<path d="M2697 880 c23 -11 57 -23 75 -25 26 -4 22 -1 -17 13 -75 28 -106 34
-58 12z"/>
<path d="M5376 892 c-6 -9 143 -7 152 3 3 3 -29 5 -71 5 -42 0 -78 -4 -81 -8z"/>
<path d="M915 880 l40 -7 -38 -2 c-21 0 -36 -5 -33 -10 3 -5 15 -7 26 -4 11 3
27 0 35 -7 14 -12 17 -8 14 16 0 4 4 10 11 14 6 4 -13 7 -42 7 -52 0 -52 0
-13 -7z"/>
<path d="M1122 869 c-1 -15 -9 -30 -18 -33 -25 -9 -52 -7 -56 5 -5 16 -78 0
-78 -18 0 -11 14 -13 78 -7 42 4 78 8 80 9 2 2 2 18 -1 37 -3 27 -4 28 -5 7z
m-82 -33 c0 -11 -19 -15 -25 -6 -3 5 1 10 9 10 9 0 16 -2 16 -4z"/>
<path d="M1725 881 c30 -9 122 -14 114 -7 -2 2 -35 6 -74 9 -44 4 -59 3 -40
-2z"/>
<path d="M2212 885 c7 -7 97 -9 105 -2 3 4 -20 7 -52 7 -32 0 -56 -2 -53 -5z"/>
<path d="M2506 874 c-3 -9 -6 -31 -6 -50 0 -30 3 -34 25 -34 22 0 25 4 25 38
0 51 -30 82 -44 46z m28 -20 c10 -27 7 -44 -9 -44 -10 0 -15 10 -15 30 0 32
14 40 24 14z"/>
<path d="M3280 880 l-55 -7 68 -1 c39 -1 67 2 67 8 0 6 -6 9 -12 8 -7 -1 -38
-4 -68 -8z"/>
<path d="M4488 885 c-2 -1 -79 -6 -173 -10 -93 -4 -172 -9 -175 -12 -5 -5 382
7 388 12 1 1 -6 5 -17 8 -11 2 -21 4 -23 2z"/>
<path d="M5125 880 c-12 -5 22 -7 85 -4 58 3 107 8 109 10 8 8 -174 2 -194 -6z"/>
<path d="M5338 883 c7 -3 16 -2 19 1 4 3 -2 6 -13 5 -11 0 -14 -3 -6 -6z"/>
<path d="M1000 870 c8 -5 26 -10 40 -10 20 0 22 2 10 10 -8 5 -26 10 -40 10
-20 0 -22 -2 -10 -10z"/>
<path d="M1990 873 c-36 -2 -69 -8 -74 -13 -4 -5 15 -6 45 -4 30 3 97 9 149
13 l95 8 -75 0 c-41 -1 -104 -2 -140 -4z"/>
<path d="M2614 865 c-3 -7 -4 -26 -2 -42 3 -28 3 -28 58 -22 l55 6 -53 1 c-49
2 -53 4 -50 25 2 13 9 21 18 19 67 -11 130 -28 130 -34 0 -9 51 -11 74 -2 9 3
16 11 16 16 0 7 -5 6 -14 -1 -15 -13 -60 -5 -169 29 -47 15 -59 16 -63 5z"/>
<path d="M3188 873 c7 -3 16 -2 19 1 4 3 -2 6 -13 5 -11 0 -14 -3 -6 -6z"/>
<path d="M3651 830 c1 -29 6 -50 13 -50 14 -1 64 -39 50 -40 -5 0 -19 7 -30
15 -10 8 -22 15 -26 15 -5 0 -8 -80 -8 -177 1 -135 4 -182 14 -196 8 -10 17
-14 20 -9 3 6 -1 12 -9 15 -12 5 -14 36 -14 177 1 93 3 170 4 170 8 0 132 -75
175 -105 25 -18 77 -51 117 -74 39 -22 79 -48 87 -57 9 -8 16 -13 16 -10 0 4
21 -9 48 -27 26 -18 55 -36 65 -40 10 -4 15 -11 12 -17 -4 -6 6 -10 22 -10 24
0 18 6 -45 46 -40 26 -71 49 -68 52 3 3 42 -18 87 -47 44 -28 82 -51 85 -51 2
0 27 -16 55 -36 28 -20 49 -30 47 -24 -2 7 -90 67 -196 133 -106 66 -190 122
-188 125 4 4 105 -54 181 -104 14 -9 25 -12 25 -8 0 5 -9 14 -20 19 -19 10
-181 109 -320 196 -80 51 -161 95 -138 77 9 -7 37 -26 63 -41 26 -15 45 -31
42 -34 -4 -3 -40 16 -82 41 -73 46 -94 65 -57 52 16 -6 16 -5 0 8 -19 14 -24
46 -8 46 6 0 10 -5 10 -12 0 -6 3 -8 6 -5 8 7 -14 37 -27 37 -5 0 -8 -22 -8
-50z m269 -206 c94 -58 169 -108 166 -111 -5 -6 -366 216 -366 224 0 10 32 -8
200 -113z m-13 40 c41 -25 72 -48 69 -51 -5 -6 -156 84 -156 93 0 10 17 1 87
-42z"/>
<path d="M4770 870 c-52 -4 -142 -8 -199 -9 -57 0 -102 -3 -99 -6 7 -7 176 -6
298 1 52 4 149 10 215 13 l120 8 -120 0 c-66 0 -163 -4 -215 -7z"/>
<path d="M2463 863 c-10 -3 -13 -51 -11 -196 1 -126 4 -171 8 -132 6 55 7 51
7 -35 0 -52 -1 -87 -4 -77 -6 23 -23 22 -23 -3 0 -13 7 -20 20 -20 19 0 20 7
20 235 0 129 -1 235 -2 234 -2 0 -9 -3 -15 -6z m4 -45 c-3 -7 -5 -2 -5 12 0
14 2 19 5 13 2 -7 2 -19 0 -25z m0 -170 c-3 -8 -6 -5 -6 6 -1 11 2 17 5 13 3
-3 4 -12 1 -19z"/>
<path d="M2560 725 c0 -122 2 -145 15 -145 13 0 15 23 15 145 0 122 -2 145
-15 145 -13 0 -15 -23 -15 -145z m17 -37 c-2 -13 -4 -3 -4 22 0 25 2 35 4 23
2 -13 2 -33 0 -45z m0 -65 c-3 -10 -5 -4 -5 12 0 17 2 24 5 18 2 -7 2 -21 0
-30z"/>
<path d="M3088 863 c18 -2 45 -2 60 0 15 2 0 4 -33 4 -33 0 -45 -2 -27 -4z"/>
<path d="M3420 866 c0 -2 9 -6 20 -9 11 -3 20 -1 20 4 0 5 -9 9 -20 9 -11 0
-20 -2 -20 -4z"/>
<path d="M3540 862 c0 -12 50 -46 56 -39 3 3 -9 15 -25 27 -17 12 -31 17 -31
12z"/>
<path d="M830 853 c0 -5 4 -14 9 -21 6 -10 10 -9 14 7 3 14 0 21 -9 21 -8 0
-14 -3 -14 -7z"/>
<path d="M1283 839 c-51 -16 -63 -24 -63 -40 0 -15 5 -19 16 -15 9 3 42 6 75
6 l59 0 0 35 c0 41 -2 41 -87 14z m77 -14 c0 -24 -2 -25 -67 -25 -73 0 -74 9
-3 29 40 12 60 18 68 20 1 1 2 -10 2 -24z"/>
<path d="M1750 850 c0 -4 -11 -5 -25 -2 -16 3 -25 0 -25 -8 0 -8 -9 -11 -26
-7 -17 3 -22 1 -15 -6 6 -6 21 -6 38 -1 15 4 43 7 62 5 20 -2 31 1 27 7 -4 6
16 10 50 11 31 0 59 3 63 6 3 3 -29 5 -72 4 -42 -1 -77 -5 -77 -9z"/>
<path d="M2914 846 c-3 -8 -4 -31 -1 -52 3 -37 4 -37 5 8 l2 47 68 4 67 3 -68
2 c-50 1 -69 -2 -73 -12z"/>
<path d="M3281 856 c9 -9 75 -12 99 -5 17 5 5 7 -39 8 -35 1 -62 -1 -60 -3z"/>
<path d="M3098 843 c12 -2 32 -2 45 0 12 2 2 4 -23 4 -25 0 -35 -2 -22 -4z"/>
<path d="M3706 840 c12 -12 72 -51 184 -117 36 -22 77 -47 93 -57 15 -10 27
-16 27 -13 0 5 -249 163 -300 192 -12 6 -12 5 -4 -5z"/>
<path d="M4216 842 c-2 -4 39 -6 92 -4 142 5 152 9 25 11 -61 0 -114 -3 -117
-7z"/>
<path d="M5591 828 c-1 -22 -6 -28 -23 -28 -111 -3 -274 -13 -278 -17 -6 -7
310 4 317 11 3 3 0 17 -5 33 l-10 28 -1 -27z"/>
<path d="M1806 832 c-5 -9 43 -19 233 -48 93 -14 356 -10 332 5 -6 4 -29 5
-53 4 -183 -11 -210 -10 -345 12 -78 13 -147 26 -152 29 -5 4 -12 2 -15 -2z"/>
<path d="M3446 759 c3 -109 14 -114 14 -6 0 48 -4 87 -8 87 -4 0 -7 -36 -6
-81z"/>
<path d="M3520 668 c0 -94 2 -169 5 -166 3 3 6 75 6 161 1 87 4 157 8 157 22
0 40 -30 44 -70 l4 -45 1 50 c2 46 -1 52 -27 68 -16 9 -32 17 -35 17 -3 0 -6
-77 -6 -172z"/>
<path d="M1161 806 l-24 -26 34 0 c28 0 35 4 36 20 1 11 -2 18 -7 15 -4 -3
-10 0 -12 6 -2 5 -14 -1 -27 -15z"/>
<path d="M2978 823 c7 -3 16 -2 19 1 4 3 -2 6 -13 5 -11 0 -14 -3 -6 -6z"/>
<path d="M3289 826 c-2 -2 -78 -6 -169 -10 -165 -7 -220 -15 -119 -17 30 -1
57 -1 61 0 49 7 147 8 143 1 -3 -5 9 -4 27 1 18 5 50 7 71 3 25 -4 37 -2 37 6
0 7 13 10 34 9 19 -2 38 0 42 4 7 7 -119 10 -127 3z"/>
<path d="M805 810 c-3 -5 -1 -10 4 -10 6 0 11 5 11 10 0 6 -2 10 -4 10 -3 0
-8 -4 -11 -10z"/>
<path d="M1622 808 c-21 -21 -14 -38 16 -37 16 1 20 3 10 6 -22 6 -24 23 -2
23 8 0 12 5 9 10 -8 13 -18 13 -33 -2z"/>
<path d="M1710 806 c-5 -5 -10 -14 -10 -18 0 -10 103 -9 155 1 37 8 38 9 10
11 -16 1 -56 5 -87 9 -36 4 -62 3 -68 -3z m37 -12 c-3 -3 -12 -4 -19 -1 -8 3
-5 6 6 6 11 1 17 -2 13 -5z"/>
<path d="M2932 578 c-1 -137 1 -248 6 -248 4 0 6 73 4 162 -4 305 -8 333 -10
86z"/>
<path d="M930 800 c-13 -8 -13 -10 2 -10 9 0 20 5 23 10 8 13 -5 13 -25 0z"/>
<path d="M1390 797 c0 -12 -18 -17 -92 -23 -71 -6 -85 -10 -58 -14 19 -3 45
-2 58 2 13 4 39 8 58 8 33 0 56 21 40 37 -3 4 -6 -1 -6 -10z"/>
<path d="M1579 808 c0 -2 -3 -99 -6 -215 -5 -192 -4 -213 11 -213 14 0 16 23
16 215 0 137 -4 215 -10 215 -5 0 -10 -1 -11 -2z m8 -330 c-3 -8 -6 -5 -6 6
-1 11 2 17 5 13 3 -3 4 -12 1 -19z"/>
<path d="M1684 600 c0 -118 2 -167 3 -108 2 60 2 156 0 216 -1 59 -3 10 -3
-108z"/>
<path d="M2874 685 c0 -71 1 -99 3 -62 2 37 2 96 0 130 -2 34 -3 4 -3 -68z"/>
<path d="M858 793 c12 -2 30 -2 40 0 9 3 -1 5 -23 4 -22 0 -30 -2 -17 -4z"/>
<path d="M1000 790 c21 -4 27 -8 14 -9 -28 -1 -41 -31 -15 -31 10 0 24 7 31
15 15 19 30 19 30 2 0 -8 7 -14 15 -14 8 0 14 7 13 16 -3 18 -36 29 -88 29
l-35 -1 35 -7z"/>
<path d="M2821 795 c-2 -5 -3 -83 -2 -173 2 -161 2 -162 -21 -171 -21 -9 -21
-10 -3 -10 17 -1 20 -8 20 -55 0 -30 3 -52 8 -47 4 4 6 111 4 237 -1 126 -4
225 -6 219z"/>
<path d="M2840 570 c0 -136 4 -230 9 -230 6 0 10 94 9 230 0 132 -4 230 -9
230 -5 0 -9 -98 -9 -230z"/>
<path d="M3251 789 c-24 -5 -58 -20 -77 -34 -62 -47 -68 -71 -74 -262 -3 -115
-2 -169 5 -162 6 6 9 68 7 155 -2 125 0 152 17 188 42 97 156 134 236 78 53
-37 68 -70 75 -167 l7 -80 1 70 c1 39 -3 86 -8 106 -20 73 -107 122 -189 108z"/>
<path d="M3365 788 c11 -6 31 -20 45 -32 14 -11 11 -6 -7 12 -18 17 -38 32
-45 32 -7 0 -4 -6 7 -12z"/>
<path d="M785 770 c-30 -19 -61 -67 -51 -78 3 -3 6 1 6 9 0 11 2 11 10 -1 5
-8 10 -22 10 -30 0 -13 -1 -13 -10 0 -6 9 -10 10 -10 3 0 -27 21 -22 31 7 9
24 15 29 30 25 13 -4 19 -1 19 9 0 9 7 16 16 16 24 0 11 25 -16 28 -17 3 -20
6 -9 12 7 5 11 11 8 14 -3 3 -18 -3 -34 -14z m54 -26 c2 -2 -3 -4 -12 -4 -9 0
-17 -8 -17 -17 0 -15 -2 -16 -9 -3 -6 8 -7 18 -4 24 3 5 1 6 -6 2 -6 -4 -9
-10 -7 -14 2 -4 -2 -15 -9 -25 -12 -16 -13 -16 -19 -1 -10 26 22 55 53 47 14
-3 28 -7 30 -9z"/>
<path d="M2693 783 c15 -2 37 -2 50 0 12 2 0 4 -28 4 -27 0 -38 -2 -22 -4z"/>
<path d="M3150 764 c-30 -26 -66 -82 -57 -90 2 -3 10 9 17 26 7 17 29 44 49
60 19 17 33 30 29 30 -4 0 -20 -12 -38 -26z"/>
<path d="M5187 784 c-1 -1 -83 -5 -182 -8 -99 -4 -182 -10 -185 -12 -8 -8 444
7 452 15 6 5 -79 10 -85 5z"/>
<path d="M905 770 c27 -12 43 -12 25 0 -8 5 -22 9 -30 9 -10 0 -8 -3 5 -9z"/>
<path d="M955 770 c-3 -6 1 -7 9 -4 18 7 21 14 7 14 -6 0 -13 -4 -16 -10z"/>
<path d="M1538 763 c-9 -10 -19 -29 -23 -43 -7 -22 -6 -23 8 -12 9 8 13 20 10
28 -3 8 0 14 7 14 6 0 8 -4 5 -10 -3 -5 -1 -10 4 -10 6 0 11 11 11 25 0 30 -2
30 -22 8z"/>
<path d="M1810 773 c-52 -2 -99 -8 -103 -12 -10 -10 139 -4 218 9 54 8 51 8
-115 3z"/>
<path d="M2020 765 c7 -9 10 -87 8 -223 -2 -116 0 -208 5 -205 4 2 7 100 8
216 0 128 4 204 9 192 5 -11 9 -14 9 -7 1 6 8 12 16 12 12 0 14 -31 14 -195 0
-186 -1 -195 -20 -195 -10 0 -19 -4 -19 -9 0 -4 11 -6 25 -3 l25 4 0 202 0
203 -45 10 c-36 8 -43 8 -35 -2z"/>
<path d="M2510 780 c-1 -3 -3 -21 -5 -40 -4 -31 -3 -32 6 -11 5 14 8 32 6 40
-3 9 -6 14 -7 11z"/>
<path d="M2530 770 c0 -5 5 -10 11 -10 5 0 7 5 4 10 -3 6 -8 10 -11 10 -2 0
-4 -4 -4 -10z"/>
<path d="M2623 769 c14 -8 22 -8 30 0 8 8 3 11 -18 11 -26 -1 -28 -2 -12 -11z"/>
<path d="M5548 772 c-53 -3 -58 -5 -57 -25 1 -17 2 -18 6 -4 3 13 15 17 48 17
53 0 53 3 61 -206 4 -87 8 -161 11 -164 5 -6 0 247 -7 325 l-5 60 -57 -3z"/>
<path d="M560 762 c0 -6 5 -14 11 -17 6 -4 8 -14 5 -22 -3 -8 -1 -11 4 -8 15
9 12 31 -5 45 -9 8 -15 9 -15 2z"/>
<path d="M860 760 c20 -13 33 -13 25 0 -3 6 -14 10 -23 10 -15 0 -15 -2 -2
-10z"/>
<path d="M1113 720 c0 -30 2 -43 4 -27 2 15 2 39 0 55 -2 15 -4 2 -4 -28z"/>
<path d="M2260 763 c-110 -6 -120 -10 -119 -46 2 -30 2 -30 6 -5 5 34 28 41
112 36 34 -1 61 -1 61 2 0 3 12 7 27 8 40 3 42 12 2 10 -19 -1 -59 -3 -89 -5z"/>
<path d="M2405 760 c3 -5 -3 -10 -14 -10 -11 0 -23 -4 -26 -10 -8 -13 -5 -12
34 1 33 11 42 29 15 29 -8 0 -12 -4 -9 -10z"/>
<path d="M5421 767 c2 -2 15 -10 29 -19 24 -15 26 -14 26 3 0 14 -8 19 -30 19
-16 0 -27 -1 -25 -3z"/>
<path d="M1620 756 c0 -2 11 -6 25 -8 13 -3 22 -1 19 3 -5 9 -44 13 -44 5z"/>
<path d="M1985 751 c-3 -5 -1 -12 5 -16 6 -4 9 -84 8 -216 l-1 -209 -33 0 -33
0 -4 83 -3 82 -2 -91 -2 -91 45 0 45 0 0 233 c0 214 -5 257 -25 225z"/>
<path d="M2114 550 c0 -118 2 -167 3 -108 2 60 2 156 0 216 -1 59 -3 10 -3
-108z"/>
<path d="M2613 712 c-2 -36 0 -43 8 -29 5 9 8 21 5 25 -3 5 4 8 16 7 31 -2 42
-32 49 -130 l5 -90 2 86 c2 75 -1 90 -20 119 -13 18 -32 39 -43 46 -19 12 -20
11 -22 -34z m32 18 c3 -6 -1 -7 -9 -4 -18 7 -21 14 -7 14 6 0 13 -4 16 -10z"/>
<path d="M3257 740 c3 -11 7 -20 9 -20 2 0 4 9 4 20 0 11 -4 20 -9 20 -5 0 -7
-9 -4 -20z"/>
<path d="M3290 750 c0 -5 9 -10 20 -10 20 0 20 -1 -5 -37 -26 -38 -32 -59 -16
-48 5 3 12 1 16 -5 11 -18 30 -11 42 17 l13 26 -24 -22 c-33 -32 -43 -9 -15
35 18 30 19 38 8 45 -19 12 -39 11 -39 -1z"/>
<path d="M5180 750 c0 -9 189 -4 199 6 2 2 -41 4 -97 4 -61 0 -102 -4 -102
-10z"/>
<path d="M904 741 c4 -5 1 -11 -6 -13 -6 -2 -8 -10 -4 -16 12 -20 24 -14 24
13 0 14 -5 25 -10 25 -5 0 -7 -4 -4 -9z"/>
<path d="M929 603 c0 -82 -3 -209 -5 -283 -4 -92 -3 -132 5 -125 15 15 27 555
12 555 -9 0 -12 -39 -12 -147z"/>
<path d="M1758 743 c-43 -3 -58 -8 -58 -19 0 -11 7 -13 28 -7 15 4 42 7 60 6
42 -2 88 -31 74 -45 -12 -12 -35 -1 -27 13 3 5 -1 6 -10 2 -14 -5 -14 -8 -3
-15 9 -7 4 -8 -14 -4 -27 6 -28 5 -28 -41 0 -43 1 -45 15 -27 17 22 20 38 5
29 -5 -3 -10 -1 -10 5 0 7 7 9 15 6 9 -3 18 1 21 9 5 11 10 12 26 4 13 -7 18
-7 14 -1 -10 17 10 23 23 8 6 -8 18 -33 26 -57 12 -38 14 -39 8 -9 -8 53 -31
89 -69 112 -19 11 -34 21 -34 22 0 2 26 4 57 5 32 1 60 4 62 7 5 4 -84 3 -181
-3z"/>
<path d="M2660 746 c0 -2 8 -10 18 -17 15 -13 16 -12 3 4 -13 16 -21 21 -21
13z"/>
<path d="M3210 745 c0 -8 50 -85 55 -85 11 0 4 18 -15 40 -12 13 -18 30 -16
37 3 7 -1 13 -9 13 -8 0 -15 -2 -15 -5z"/>
<path d="M4910 742 c0 -9 78 -7 87 2 4 3 -15 6 -40 6 -26 0 -47 -4 -47 -8z"/>
<path d="M5048 743 c23 -2 61 -2 85 0 23 2 4 4 -43 4 -47 0 -66 -2 -42 -4z"/>
<path d="M861 570 c-1 -109 2 -170 9 -170 6 0 10 61 10 170 0 98 -4 170 -9
170 -6 0 -10 -73 -10 -170z"/>
<path d="M1613 652 l-1 -87 19 50 c25 65 26 125 2 125 -16 0 -18 -12 -20 -88z
m24 16 c-2 -13 -4 -5 -4 17 -1 22 1 32 4 23 2 -10 2 -28 0 -40z"/>
<path d="M3364 719 c0 -10 6 -19 13 -19 18 0 34 -43 19 -52 -7 -5 -5 -8 7 -8
21 0 22 12 3 49 -21 40 -42 55 -42 30z"/>
<path d="M4738 733 c17 -3 32 -10 32 -16 0 -7 4 -6 10 3 8 12 13 13 30 2 16
-10 20 -10 20 2 0 11 -15 14 -62 13 -35 0 -48 -2 -30 -4z"/>
<path d="M4840 690 c0 -40 3 -48 15 -44 10 4 15 20 15 50 0 32 -4 44 -15 44
-11 0 -15 -12 -15 -50z"/>
<path d="M1073 723 c-16 -6 -17 -59 -2 -69 15 -9 5 -245 -12 -277 -11 -21 -10
-21 6 -5 15 14 19 41 23 187 3 94 3 171 1 170 -2 0 -10 -3 -16 -6z"/>
<path d="M2323 722 c-9 -6 -7 -11 7 -20 12 -7 20 -8 20 -2 0 5 -5 10 -11 10
-5 0 -7 5 -4 10 7 12 4 12 -12 2z"/>
<path d="M2397 719 c-9 -5 -22 -7 -27 -4 -14 9 0 -24 27 -64 l23 -34 0 57 c0
31 -1 56 -2 56 -2 0 -11 -5 -21 -11z m13 -35 c0 -8 -4 -12 -10 -9 -5 3 -10 10
-10 16 0 5 5 9 10 9 6 0 10 -7 10 -16z"/>
<path d="M2542 710 c0 -14 2 -19 5 -12 2 6 2 18 0 25 -3 6 -5 1 -5 -13z"/>
<path d="M2909 638 c-1 -51 -2 -123 -3 -160 0 -38 2 -68 7 -68 4 0 7 72 7 160
0 88 -2 160 -5 160 -3 0 -5 -42 -6 -92z"/>
<path d="M3172 710 c-7 -12 -8 -20 -2 -20 5 0 10 5 10 12 0 6 14 -1 31 -18
l32 -29 -24 37 c-28 44 -30 45 -47 18z"/>
<path d="M4694 723 c3 -4 23 -12 42 -19 20 -7 32 -8 27 -3 -5 5 -24 14 -43 19
-18 5 -30 6 -26 3z"/>
<path d="M4924 708 c-12 -14 -13 -18 -3 -10 9 6 18 10 21 7 2 -3 5 2 5 10 0
19 0 19 -23 -7z"/>
<path d="M678 713 c7 -3 16 -2 19 1 4 3 -2 6 -13 5 -11 0 -14 -3 -6 -6z"/>
<path d="M960 703 c0 -15 13 -16 59 -7 46 10 37 23 -14 21 -28 -1 -45 -7 -45
-14z"/>
<path d="M1535 700 c-27 -30 -28 -38 -32 -212 l-4 -158 133 2 133 2 -130 6
c-113 4 -127 7 -107 18 12 7 22 18 22 24 0 9 -3 9 -12 0 -7 -7 -15 -12 -20
-12 -4 0 -7 57 -6 127 0 95 4 133 15 150 12 18 12 23 2 23 -7 0 -3 10 11 25
13 14 21 25 18 25 -3 0 -13 -9 -23 -20z"/>
<path d="M5634 610 c0 -63 1 -89 3 -57 2 31 2 83 0 115 -2 31 -3 5 -3 -58z"/>
<path d="M815 674 c-17 -35 -15 -52 3 -40 6 3 8 15 5 26 -4 14 0 20 11 20 9 0
16 7 16 15 0 26 -17 16 -35 -21z"/>
<path d="M1725 702 c-19 -14 -15 -30 8 -25 l22 4 -23 -13 -22 -14 28 -33 27
-33 -3 47 c-3 29 -10 49 -19 52 -12 5 -12 7 -1 14 7 5 9 9 3 9 -5 0 -14 -4
-20 -8z"/>
<path d="M1780 700 c-21 -7 -21 -8 -5 -9 11 0 27 4 35 9 18 11 5 11 -30 0z"/>
<path d="M2053 670 c0 -25 2 -35 4 -22 2 12 2 32 0 45 -2 12 -4 2 -4 -23z"/>
<path d="M2705 678 c20 -51 21 -202 1 -195 -8 3 -17 -1 -20 -9 -10 -25 -7 -34
9 -28 8 4 22 1 30 -6 9 -7 18 -10 22 -7 3 4 -1 9 -9 12 -12 5 -14 21 -10 85 5
89 -2 138 -23 166 -13 17 -13 14 0 -18z"/>
<path d="M4056 696 c11 -8 94 -60 184 -116 91 -56 188 -117 215 -134 66 -43
75 -48 75 -42 0 8 -246 166 -259 166 -5 0 -11 4 -13 8 -1 5 -29 24 -62 43 -32
19 -72 42 -90 53 -17 10 -32 22 -34 27 -2 5 -11 9 -20 9 -13 0 -13 -3 4 -14z"/>
<path d="M4807 679 c22 -47 23 -47 23 -9 0 18 -3 30 -7 27 -3 -4 -12 -2 -19 4
-9 8 -8 0 3 -22z"/>
<path d="M5492 680 c0 -19 2 -27 5 -17 2 9 2 25 0 35 -3 9 -5 1 -5 -18z"/>
<path d="M575 670 c-4 -18 -2 -43 5 -60 7 -16 10 -62 8 -108 -2 -44 0 -78 5
-75 11 7 8 156 -4 192 -9 24 -8 35 2 47 8 10 9 18 2 25 -8 8 -13 2 -18 -21z"/>
<path d="M1397 642 c-32 -32 -55 -61 -50 -66 4 -5 3 -6 -5 -2 -8 5 -34 -12
-70 -45 -68 -62 -75 -74 -36 -65 l29 7 -28 -26 c-26 -25 -27 -28 -11 -39 19
-15 3 -33 -18 -20 -7 4 -3 -6 9 -22 11 -16 23 -36 26 -44 4 -10 6 -8 6 7 1 12
-4 23 -11 25 -7 3 -9 12 -4 23 5 14 9 16 18 7 18 -18 27 -14 21 7 -3 11 -11
17 -18 15 -23 -9 -25 13 -4 40 11 14 17 26 14 26 -4 0 -2 6 4 14 7 8 8 16 4
18 -4 3 -3 4 4 2 6 -1 19 6 29 17 9 10 22 19 28 19 5 0 -5 -16 -24 -35 -19
-19 -30 -35 -25 -35 4 0 0 -10 -11 -22 l-19 -22 30 21 c17 11 38 30 49 42 10
11 23 18 28 15 4 -3 7 -1 6 4 -2 6 18 26 44 46 l47 36 4 -102 c3 -99 3 -98 4
25 1 117 0 127 -16 115 -26 -20 -27 -22 -6 -14 13 5 7 -6 -20 -33 -49 -51 -71
-54 -24 -3 l34 37 -37 -34 c-21 -19 -35 -37 -33 -40 7 -6 -46 -61 -59 -61 -5
0 3 14 19 30 16 17 25 30 20 30 -4 0 0 9 11 21 10 12 18 24 17 28 -2 3 3 6 10
6 6 1 11 6 10 13 -2 6 3 9 10 6 7 -2 22 4 32 16 19 21 8 29 -13 8 -8 -8 -12
-8 -12 -1 0 14 22 22 52 19 22 -3 24 -1 14 20 -6 13 -13 24 -16 23 -3 0 -31
-26 -63 -57z"/>
<path d="M3584 580 c0 -69 1 -97 3 -62 2 34 2 90 0 125 -2 34 -3 6 -3 -63z"/>
<path d="M4890 673 c0 -18 2 -33 4 -33 9 0 13 39 5 51 -6 10 -9 4 -9 -18z"/>
<path d="M787 683 c-4 -3 -7 -11 -7 -17 0 -6 5 -5 12 2 6 6 9 14 7 17 -3 3 -9
2 -12 -2z"/>
<path d="M895 679 c-4 -6 -5 -12 -2 -15 2 -3 7 2 10 11 7 17 1 20 -8 4z"/>
<path d="M1549 688 c-5 -18 -3 -121 3 -130 4 -7 8 20 8 60 0 39 -2 72 -5 72
-3 0 -5 -1 -6 -2z"/>
<path d="M2285 680 c-3 -6 1 -7 9 -4 18 7 21 14 7 14 -6 0 -13 -4 -16 -10z"/>
<path d="M2326 646 c-9 -19 -16 -37 -16 -40 0 -3 20 -6 45 -6 42 0 58 11 35
25 -5 3 -10 1 -10 -4 0 -6 -12 -11 -26 -11 -21 0 -25 4 -22 23 2 16 9 21 22
19 17 -3 18 -2 7 12 -17 21 -16 21 -35 -18z"/>
<path d="M2628 655 c-26 -35 -22 -45 17 -45 19 0 35 2 35 4 0 12 -23 66 -28
66 -4 0 -15 -11 -24 -25z m32 -20 c0 -8 -4 -15 -10 -15 -5 0 -10 7 -10 15 0 8
5 15 10 15 6 0 10 -7 10 -15z"/>
<path d="M4035 671 c-7 -12 12 -24 25 -16 11 7 4 25 -10 25 -5 0 -11 -4 -15
-9z"/>
<path d="M973 663 c9 -2 23 -2 30 0 6 3 -1 5 -18 5 -16 0 -22 -2 -12 -5z"/>
<path d="M2300 660 c0 -5 -5 -9 -11 -7 -6 1 -14 -5 -16 -13 -4 -12 -3 -12 5
-2 5 8 13 13 18 12 5 -1 10 3 12 9 2 6 1 11 -2 11 -3 0 -6 -4 -6 -10z"/>
<path d="M4795 650 c4 -14 10 -41 15 -60 l8 -35 1 31 c0 18 -6 45 -15 60 -14
27 -15 27 -9 4z"/>
<path d="M1112 640 c0 -14 2 -19 5 -12 2 6 2 18 0 25 -3 6 -5 1 -5 -13z"/>
<path d="M3079 610 c-1 -27 -2 -64 -3 -81 0 -17 2 -35 5 -40 3 -5 6 31 7 81 1
49 0 90 -3 90 -3 0 -6 -22 -6 -50z"/>
<path d="M3140 645 c0 -8 4 -15 10 -15 5 0 7 7 4 15 -4 8 -8 15 -10 15 -2 0
-4 -7 -4 -15z"/>
<path d="M3214 652 c3 -6 -4 -13 -16 -15 -15 -3 -9 -5 15 -6 42 -1 46 3 16 20
-13 7 -19 7 -15 1z"/>
<path d="M4067 653 c-10 -10 62 -55 75 -47 7 4 8 3 4 -4 -4 -7 7 -19 31 -29
21 -10 43 -25 50 -33 6 -8 15 -12 19 -8 4 5 13 -1 21 -12 8 -12 20 -17 30 -13
12 5 14 3 8 -8 -4 -8 -5 -11 0 -7 4 4 14 0 22 -10 10 -11 12 -12 8 -2 -4 8 1
6 10 -5 9 -11 23 -19 32 -17 10 2 12 -1 7 -10 -4 -7 -4 -10 0 -7 4 4 19 -4 33
-17 15 -14 32 -23 39 -20 12 5 65 -30 72 -46 5 -10 32 -10 32 0 -1 10 -342
217 -357 216 -7 -1 -11 3 -10 10 1 6 -6 10 -16 10 -10 -1 -16 0 -13 3 9 10
-43 45 -55 37 -7 -4 -9 -3 -6 3 4 6 0 14 -9 17 -19 7 -19 7 -27 -1z"/>
<path d="M613 643 c15 -2 39 -2 55 0 15 2 2 4 -28 4 -30 0 -43 -2 -27 -4z"/>
<path d="M767 643 c-10 -9 -8 -33 2 -33 5 0 11 9 14 20 5 20 -3 26 -16 13z"/>
<path d="M893 502 c1 -83 -2 -152 -6 -152 -5 0 -5 -5 -1 -11 14 -24 22 18 28
147 4 104 2 135 -9 150 -12 17 -14 -1 -12 -134z"/>
<path d="M960 633 c0 -13 3 -14 8 -6 4 7 17 11 27 10 11 -2 34 0 50 4 24 5 18
7 -27 8 -49 1 -58 -2 -58 -16z"/>
<path d="M4020 646 c0 -3 9 -10 20 -16 11 -6 20 -8 20 -6 0 3 -9 10 -20 16
-11 6 -20 8 -20 6z"/>
<path d="M4906 634 c-9 -23 -7 -182 2 -187 4 -3 7 42 7 99 0 57 -1 104 -1 104
-1 0 -5 -7 -8 -16z"/>
<path d="M665 633 c-75 -6 -81 -23 -7 -23 48 0 62 3 62 15 0 8 -1 14 -2 13 -2
-1 -25 -3 -53 -5z"/>
<path d="M726 609 c-9 -47 -7 -199 3 -199 4 0 9 52 9 115 0 63 -1 115 -2 115
-2 0 -6 -14 -10 -31z"/>
<path d="M834 606 c-3 -19 -1 -43 5 -53 8 -14 10 -8 11 35 0 60 -6 67 -16 18z"/>
<path d="M1820 609 l-21 -29 39 0 c36 0 39 2 38 28 -1 38 -30 39 -56 1z m40
-4 c0 -8 -7 -15 -15 -15 -16 0 -20 12 -8 23 11 12 23 8 23 -8z"/>
<path d="M3270 630 c0 -5 -24 -10 -52 -12 l-53 -3 57 -5 c32 -3 66 -3 77 0 19
5 19 6 -4 17 -14 6 -25 7 -25 3z"/>
<path d="M5093 633 c15 -2 37 -2 50 0 12 2 0 4 -28 4 -27 0 -38 -2 -22 -4z"/>
<path d="M1704 600 c1 -24 5 -30 24 -30 l23 0 -21 30 c-12 17 -23 30 -24 30
-2 0 -3 -13 -2 -30z"/>
<path d="M3408 623 c7 -3 16 -2 19 1 4 3 -2 6 -13 5 -11 0 -14 -3 -6 -6z"/>
<path d="M4840 588 l5 -43 3 37 c2 24 9 38 20 41 11 3 8 5 -8 6 -24 1 -25 -1
-20 -41z"/>
<path d="M1642 595 c-7 -76 -6 -223 1 -216 4 4 6 61 4 127 -1 65 -4 106 -5 89z"/>
<path d="M2052 600 c0 -14 2 -19 5 -12 2 6 2 18 0 25 -3 6 -5 1 -5 -13z"/>
<path d="M2264 500 c0 -69 1 -97 3 -62 2 34 2 90 0 125 -2 34 -3 6 -3 -63z"/>
<path d="M2282 498 c-1 -78 -6 -128 -12 -128 -5 0 -10 -17 -10 -37 0 -28 3
-34 10 -23 9 13 10 13 11 0 0 -8 4 -4 8 10 3 14 4 88 1 165 l-6 140 -2 -127z
m-1 -161 c-8 -8 -11 -7 -11 4 0 20 13 34 18 19 3 -7 -1 -17 -7 -23z"/>
<path d="M4070 617 c0 -3 35 -27 78 -54 96 -62 102 -65 102 -60 0 3 -28 22
-62 44 -35 22 -75 47 -90 57 -16 10 -28 16 -28 13z"/>
<path d="M5083 560 c0 -36 2 -50 4 -32 2 17 2 47 0 65 -2 17 -4 3 -4 -33z"/>
<path d="M5193 555 c0 -38 2 -53 4 -32 2 20 2 52 0 70 -2 17 -4 1 -4 -38z"/>
<path d="M5222 590 c0 -19 2 -27 5 -17 2 9 2 25 0 35 -3 9 -5 1 -5 -18z"/>
<path d="M5471 604 c0 -11 3 -14 6 -6 3 7 2 16 -1 19 -3 4 -6 -2 -5 -13z"/>
<path d="M791 558 c-1 -29 0 -50 2 -48 8 9 15 100 8 100 -4 0 -8 -24 -10 -52z"/>
<path d="M961 463 c1 -82 3 -141 5 -133 7 32 9 280 2 280 -5 0 -7 -66 -7 -147z"/>
<path d="M2238 514 c-2 -53 0 -98 5 -101 4 -2 7 41 7 96 0 56 -2 101 -4 101
-3 0 -6 -43 -8 -96z"/>
<path d="M2509 608 c-9 -30 -6 -36 11 -25 18 11 18 27 -1 27 -5 0 -9 -1 -10
-2z"/>
<path d="M3374 595 c-3 -8 -4 -20 -1 -27 3 -7 6 -3 6 10 1 12 5 22 10 22 13 0
21 -26 21 -67 0 -27 -5 -36 -21 -40 -16 -5 -19 -11 -14 -34 6 -24 4 -27 -14
-22 -15 4 -21 1 -21 -11 0 -20 24 -21 44 0 18 18 21 34 6 34 -18 0 -11 18 10
25 17 5 20 15 20 66 0 53 -2 59 -20 59 -11 0 -23 -7 -26 -15z"/>
<path d="M5113 570 c0 -22 4 -40 9 -40 4 0 8 18 8 40 0 22 -4 40 -8 40 -5 0
-9 -18 -9 -40z"/>
<path d="M5153 595 c0 -8 6 -16 14 -19 7 -3 13 -2 13 3 0 5 -6 14 -13 20 -10
8 -14 7 -14 -4z"/>
<path d="M5310 582 c0 -15 -5 -33 -12 -40 -9 -9 -8 -12 5 -12 13 0 17 9 17 40
0 22 -2 40 -5 40 -3 0 -5 -13 -5 -28z"/>
<path d="M611 445 c-1 -82 1 -147 4 -143 4 4 7 53 6 110 0 110 7 180 17 174 4
-2 16 0 27 4 15 6 11 8 -16 7 l-36 -2 -2 -150z"/>
<path d="M757 527 c6 -94 11 -107 12 -30 1 34 4 68 7 76 3 8 -1 17 -9 20 -12
4 -13 -7 -10 -66z"/>
<path d="M2142 580 c0 -14 2 -19 5 -12 2 6 2 18 0 25 -3 6 -5 1 -5 -13z"/>
<path d="M2628 593 c12 -2 30 -2 40 0 9 3 -1 5 -23 4 -22 0 -30 -2 -17 -4z"/>
<path d="M3141 571 c1 -18 3 -20 6 -8 9 35 28 11 25 -31 -2 -23 0 -42 5 -42 5
0 9 23 8 52 0 46 -2 51 -22 53 -19 1 -23 -3 -22 -24z"/>
<path d="M3212 523 l2 -78 3 73 c3 53 8 72 18 72 7 0 16 -6 18 -12 3 -8 6 -6
6 5 1 12 -7 17 -24 17 -25 0 -25 -1 -23 -77z"/>
<path d="M3290 538 c0 -34 3 -58 7 -55 3 4 5 29 4 57 -1 44 1 50 18 50 18 0
21 -8 24 -72 l3 -73 2 78 2 77 -30 0 -30 0 0 -62z"/>
<path d="M1662 560 c0 -19 2 -27 5 -17 2 9 2 25 0 35 -3 9 -5 1 -5 -18z"/>
<path d="M2328 583 c18 -2 45 -2 60 0 15 2 0 4 -33 4 -33 0 -45 -2 -27 -4z"/>
<path d="M1121 564 c0 -11 3 -14 6 -6 3 7 2 16 -1 19 -3 4 -6 -2 -5 -13z"/>
<path d="M1760 571 c0 -6 5 -13 10 -16 6 -3 10 1 10 9 0 9 -4 16 -10 16 -5 0
-10 -4 -10 -9z"/>
<path d="M2531 564 c0 -11 3 -14 6 -6 3 7 2 16 -1 19 -3 4 -6 -2 -5 -13z"/>
<path d="M2632 525 c2 -39 -1 -55 -9 -55 -24 0 -13 -15 12 -16 27 -2 31 6 14
23 -8 8 -5 15 10 25 13 9 19 25 19 46 -1 27 -5 32 -25 32 -24 0 -25 -2 -21
-55z m31 31 c3 -8 -1 -22 -8 -33 -13 -17 -14 -16 -15 15 0 33 13 43 23 18z"/>
<path d="M1828 563 c12 -2 30 -2 40 0 9 3 -1 5 -23 4 -22 0 -30 -2 -17 -4z"/>
<path d="M2310 470 l0 -100 25 0 25 0 0 100 0 100 -25 0 -25 0 0 -100z m39 0
c-2 -116 -23 -120 -27 -5 -3 71 4 94 26 95 1 0 2 -41 1 -90z"/>
<path d="M2382 498 l2 -73 3 68 c3 50 8 67 18 67 12 0 15 -17 15 -79 0 -76
-12 -110 -30 -81 -5 8 -9 8 -13 -4 -9 -23 9 -29 92 -31 54 -2 59 -1 16 2 l-60
4 3 99 4 100 -26 0 c-26 0 -26 -1 -24 -72z"/>
<path d="M2561 554 c-1 -12 5 -21 14 -21 9 0 15 9 15 21 0 16 -2 18 -9 7 -7
-11 -9 -11 -14 0 -3 9 -6 6 -6 -7z"/>
<path d="M1708 553 c6 -2 18 -2 25 0 6 3 1 5 -13 5 -14 0 -19 -2 -12 -5z"/>
<path d="M1923 520 c0 -25 2 -35 4 -22 2 12 2 32 0 45 -2 12 -4 2 -4 -23z"/>
<path d="M2501 544 c0 -11 3 -14 6 -6 3 7 2 16 -1 19 -3 4 -6 -2 -5 -13z"/>
<path d="M5256 545 c-3 -8 -1 -15 4 -15 6 0 10 7 10 15 0 8 -2 15 -4 15 -2 0
-6 -7 -10 -15z"/>
<path d="M702 530 c0 -14 2 -19 5 -12 2 6 2 18 0 25 -3 6 -5 1 -5 -13z"/>
<path d="M1790 438 c0 -59 3 -108 8 -108 4 0 7 46 7 102 l0 103 26 3 c25 3 27
0 32 -40 2 -24 3 -80 2 -125 -1 -46 2 -83 7 -83 4 0 8 59 8 130 l0 131 -45 -2
-45 -3 0 -108z"/>
<path d="M2872 448 c-1 -60 1 -108 6 -108 4 0 6 33 4 72 -5 132 -9 145 -10 36z"/>
<path d="M4877 543 c-11 -10 -8 -81 3 -88 6 -4 10 13 10 44 0 52 -1 56 -13 44z"/>
<path d="M5327 528 c-3 -12 -2 -29 3 -37 7 -12 9 -6 10 22 0 42 -5 48 -13 15z"/>
<path d="M1705 462 c0 -42 3 -82 7 -87 4 -7 -15 -10 -50 -10 -32 0 -70 -3 -87
-6 -20 -4 -3 -7 46 -8 42 0 91 2 108 5 l31 7 0 88 c0 49 -3 89 -8 89 -4 0 -6
-39 -5 -86 2 -63 -1 -84 -10 -81 -8 2 -12 30 -12 85 0 48 -4 82 -10 82 -6 0
-10 -32 -10 -78z"/>
<path d="M2052 520 c0 -14 2 -19 5 -12 2 6 2 18 0 25 -3 6 -5 1 -5 -13z"/>
<path d="M3143 505 c0 -22 2 -30 4 -17 2 12 2 30 0 40 -3 9 -5 -1 -4 -23z"/>
<path d="M3251 524 c0 -11 3 -14 6 -6 3 7 2 16 -1 19 -3 4 -6 -2 -5 -13z"/>
<path d="M4840 530 c0 -5 5 -10 11 -10 5 0 7 5 4 10 -3 6 -8 10 -11 10 -2 0
-4 -4 -4 -10z"/>
<path d="M1772 505 c0 -16 2 -22 5 -12 2 9 2 23 0 30 -3 6 -5 -1 -5 -18z"/>
<path d="M5213 485 c0 -27 2 -38 4 -22 2 15 2 37 0 50 -2 12 -4 0 -4 -28z"/>
<path d="M5353 495 c0 -22 2 -30 4 -17 2 12 2 30 0 40 -3 9 -5 -1 -4 -23z"/>
<path d="M2532 500 c0 -14 2 -19 5 -12 2 6 2 18 0 25 -3 6 -5 1 -5 -13z"/>
<path d="M5232 500 c0 -14 2 -19 5 -12 2 6 2 18 0 25 -3 6 -5 1 -5 -13z"/>
<path d="M1113 455 c0 -33 2 -45 4 -27 2 18 2 45 0 60 -2 15 -4 0 -4 -33z"/>
<path d="M4807 490 c-3 -11 -1 -20 4 -20 5 0 9 9 9 20 0 11 -2 20 -4 20 -2 0
-6 -9 -9 -20z"/>
<path d="M4842 485 c0 -16 2 -22 5 -12 2 9 2 23 0 30 -3 6 -5 -1 -5 -18z"/>
<path d="M5113 503 c9 -2 23 -2 30 0 6 3 -1 5 -18 5 -16 0 -22 -2 -12 -5z"/>
<path d="M792 480 c0 -14 2 -19 5 -12 2 6 2 18 0 25 -3 6 -5 1 -5 -13z"/>
<path d="M1542 475 c0 -16 2 -22 5 -12 2 9 2 23 0 30 -3 6 -5 -1 -5 -18z"/>
<path d="M2580 479 c0 -11 -5 -17 -10 -14 -6 4 -8 11 -5 16 4 5 1 9 -4 9 -6 0
-11 -11 -11 -25 0 -18 5 -25 20 -25 16 0 20 7 20 30 0 17 -2 30 -5 30 -3 0 -5
-9 -5 -21z"/>
<path d="M3251 484 c0 -11 3 -14 6 -6 3 7 2 16 -1 19 -3 4 -6 -2 -5 -13z"/>
<path d="M3486 485 c-4 -12 -1 -16 11 -13 18 3 21 20 5 26 -5 1 -12 -4 -16
-13z"/>
<path d="M5502 480 c0 -14 2 -19 5 -12 2 6 2 18 0 25 -3 6 -5 1 -5 -13z"/>
<path d="M1484 370 c0 -69 1 -97 3 -63 2 35 2 91 0 126 -2 34 -3 6 -3 -63z"/>
<path d="M1662 465 c0 -16 2 -22 5 -12 2 9 2 23 0 30 -3 6 -5 -1 -5 -18z"/>
<path d="M2503 440 c0 -30 2 -43 4 -27 2 15 2 39 0 55 -2 15 -4 2 -4 -28z"/>
<path d="M3420 480 c-12 -8 -9 -10 13 -10 16 0 26 4 22 10 -8 12 -16 12 -35 0z"/>
<path d="M4200 484 c0 -2 9 -8 20 -14 11 -6 20 -7 20 -2 0 6 -9 12 -20 15 -11
3 -20 3 -20 1z"/>
<path d="M4626 481 c-4 -5 3 -7 14 -4 23 6 26 13 6 13 -8 0 -17 -4 -20 -9z"/>
<path d="M2053 425 c0 -33 2 -45 4 -27 2 18 2 45 0 60 -2 15 -4 0 -4 -33z"/>
<path d="M2140 462 c0 -12 4 -22 9 -22 10 0 9 26 -2 36 -4 4 -7 -2 -7 -14z"/>
<path d="M3171 468 c4 -37 -2 -108 -10 -108 -6 0 -12 19 -14 43 l-4 42 -1 -47
c-2 -44 0 -48 22 -48 22 0 23 3 23 65 0 36 -4 65 -9 65 -5 0 -8 -6 -7 -12z"/>
<path d="M3528 474 c-12 -12 51 -56 72 -51 11 3 20 1 20 -4 0 -5 -7 -9 -16 -9
-10 0 -14 -6 -10 -15 3 -8 1 -15 -4 -15 -6 0 -10 -4 -10 -10 0 -18 25 0 38 27
17 39 16 41 -28 48 -22 4 -44 13 -48 21 -4 8 -11 12 -14 8z"/>
<path d="M5643 445 c0 -22 2 -30 4 -17 2 12 2 30 0 40 -3 9 -5 -1 -4 -23z"/>
<path d="M2532 445 c0 -16 2 -22 5 -12 2 9 2 23 0 30 -3 6 -5 -1 -5 -18z"/>
<path d="M3077 450 c3 -11 7 -20 9 -20 2 0 4 9 4 20 0 11 -4 20 -9 20 -5 0 -7
-9 -4 -20z"/>
<path d="M3292 413 c-2 -58 0 -63 19 -63 11 0 17 5 14 10 -4 6 -10 8 -15 5 -5
-3 -11 20 -13 52 l-3 58 -2 -62z"/>
<path d="M4757 459 c7 -7 15 -10 18 -7 3 3 -2 9 -12 12 -14 6 -15 5 -6 -5z"/>
<path d="M5478 425 c-2 -25 0 -45 4 -45 5 0 8 20 8 45 0 25 -2 45 -4 45 -2 0
-6 -20 -8 -45z"/>
<path d="M3251 413 c-1 -39 -5 -53 -15 -53 -8 0 -17 12 -19 28 -4 25 -4 25 -6
-5 -1 -30 2 -33 27 -33 26 0 27 2 24 43 -5 68 -10 76 -11 20z"/>
<path d="M3432 453 c-7 -2 -17 -14 -23 -25 -8 -15 -8 -19 0 -14 6 4 11 3 11
-3 0 -5 -6 -12 -12 -14 -9 -4 -8 -6 2 -6 8 -1 21 8 28 20 10 15 21 20 38 16
13 -2 24 0 24 4 0 12 -37 11 -61 -1 -10 -6 -19 -7 -19 -2 0 5 10 14 23 20 22
11 14 15 -11 5z"/>
<path d="M4250 456 c0 -2 11 -11 25 -20 14 -9 25 -13 25 -8 0 5 -11 14 -25 20
-14 6 -25 10 -25 8z"/>
<path d="M690 440 c0 -5 5 -10 11 -10 5 0 7 5 4 10 -3 6 -8 10 -11 10 -2 0 -4
-4 -4 -10z"/>
<path d="M3518 443 c10 -4 10 -8 2 -19 -14 -16 -5 -34 18 -34 12 0 13 3 4 12
-16 16 -15 31 1 22 8 -5 8 -2 -2 9 -7 9 -19 17 -25 16 -6 0 -6 -3 2 -6z"/>
<path d="M4047 430 c3 -11 9 -20 15 -20 5 0 4 9 -2 20 -6 11 -12 20 -14 20 -2
0 -2 -9 1 -20z"/>
<path d="M1542 420 c0 -14 2 -19 5 -12 2 6 2 18 0 25 -3 6 -5 1 -5 -13z"/>
<path d="M2596 432 c-4 -7 -2 -12 5 -12 8 0 8 -4 -1 -15 -7 -9 -10 -18 -6 -22
3 -3 6 -1 6 5 0 6 6 9 13 6 8 -3 13 4 14 16 1 11 -2 18 -7 15 -4 -3 -10 0 -12
7 -3 9 -6 9 -12 0z"/>
<path d="M3928 433 c7 -3 16 -2 19 1 4 3 -2 6 -13 5 -11 0 -14 -3 -6 -6z"/>
<path d="M4885 430 c3 -5 14 -10 23 -10 15 0 15 2 2 10 -20 13 -33 13 -25 0z"/>
<path d="M831 414 c0 -11 3 -14 6 -6 3 7 2 16 -1 19 -3 4 -6 -2 -5 -13z"/>
<path d="M1612 405 c0 -16 2 -22 5 -12 2 9 2 23 0 30 -3 6 -5 -1 -5 -18z"/>
<path d="M1662 410 c0 -14 2 -19 5 -12 2 6 2 18 0 25 -3 6 -5 1 -5 -13z"/>
<path d="M2550 420 c0 -6 7 -10 15 -10 8 0 15 2 15 4 0 2 -7 6 -15 10 -8 3
-15 1 -15 -4z"/>
<path d="M2760 420 c0 -5 6 -10 14 -10 8 0 18 5 21 10 3 6 -3 10 -14 10 -12 0
-21 -4 -21 -10z"/>
<path d="M4081 413 c-1 -17 3 -20 22 -15 l22 5 -20 -23 -20 -24 26 20 c29 21
29 34 -1 34 -10 0 -21 6 -23 13 -3 6 -6 2 -6 -10z"/>
<path d="M5072 405 c0 -16 2 -22 5 -12 2 9 2 23 0 30 -3 6 -5 -1 -5 -18z"/>
<path d="M5230 416 c0 -9 5 -16 10 -16 6 0 10 4 10 9 0 6 -4 13 -10 16 -5 3
-10 -1 -10 -9z"/>
<path d="M726 391 c-25 -26 -27 -34 -23 -92 l3 -64 2 63 c1 36 6 62 13 62 5 0
7 4 4 10 -3 5 6 12 20 16 14 3 25 12 25 20 0 21 -14 17 -44 -15z"/>
<path d="M2686 406 c10 -8 21 -12 24 -10 5 6 -21 24 -34 24 -6 0 -1 -6 10 -14z"/>
<path d="M3079 388 c-3 -22 -1 -34 4 -29 5 5 7 21 5 37 -3 27 -4 26 -9 -8z"/>
<path d="M4310 415 c0 -2 10 -10 23 -16 20 -11 21 -11 8 4 -13 16 -31 23 -31
12z"/>
<path d="M4396 405 c10 -8 23 -15 28 -15 6 0 1 7 -10 15 -10 8 -23 15 -28 15
-6 0 -1 -7 10 -15z"/>
<path d="M5098 413 c6 -2 18 -2 25 0 6 3 1 5 -13 5 -14 0 -19 -2 -12 -5z"/>
<path d="M5190 411 c0 -6 6 -12 13 -12 6 -1 -4 -5 -23 -9 l-35 -7 32 -2 c37
-1 49 11 28 29 -10 9 -15 9 -15 1z"/>
<path d="M2725 400 c-4 -6 1 -10 9 -10 10 0 16 -13 19 -42 l4 -43 1 46 c1 33
-2 49 -13 52 -8 4 -17 2 -20 -3z"/>
<path d="M3445 399 c-4 -6 -4 -13 -1 -16 3 -4 6 -1 6 5 0 19 35 14 55 -8 20
-22 35 -26 35 -10 0 6 -6 10 -14 10 -7 0 -19 7 -26 15 -14 17 -46 20 -55 4z"/>
<path d="M4540 399 c0 -15 18 -19 23 -6 3 8 -1 14 -9 14 -8 0 -14 -4 -14 -8z"/>
<path d="M4920 398 c0 -9 5 -20 10 -23 13 -8 13 5 0 25 -8 13 -10 13 -10 -2z"/>
<path d="M5052 380 c0 -19 2 -27 5 -17 2 9 2 25 0 35 -3 9 -5 1 -5 -18z"/>
<path d="M790 396 c0 -2 7 -9 15 -16 13 -11 14 -10 9 4 -5 14 -24 23 -24 12z"/>
<path d="M1772 380 c0 -14 2 -19 5 -12 2 6 2 18 0 25 -3 6 -5 1 -5 -13z"/>
<path d="M2554 384 c3 -9 6 -36 6 -61 0 -65 12 -46 13 21 2 41 -2 56 -12 56
-8 0 -11 -6 -7 -16z"/>
<path d="M2776 391 c-4 -7 -5 -15 -2 -18 9 -9 19 4 14 18 -4 11 -6 11 -12 0z"/>
<path d="M2908 370 c-3 -16 -1 -30 4 -30 4 0 8 14 8 30 0 17 -2 30 -4 30 -2 0
-6 -13 -8 -30z"/>
<path d="M3340 364 c0 -26 3 -32 16 -27 11 4 12 8 4 13 -9 5 -9 13 -2 27 9 15
8 20 -4 20 -9 0 -14 -11 -14 -33z"/>
<path d="M4220 387 c0 -5 11 -6 24 -3 18 4 28 1 35 -11 6 -10 11 -13 11 -6 0
6 -6 15 -12 20 -18 11 -58 11 -58 0z"/>
<path d="M858 378 c-3 -7 -1 -24 3 -38 6 -23 7 -23 8 -3 1 12 4 28 7 37 3 9 2
16 -4 16 -5 0 -12 -6 -14 -12z"/>
<path d="M1096 375 c4 -8 10 -15 16 -15 5 0 7 -9 3 -20 -3 -11 -2 -28 4 -37 8
-15 10 -10 11 22 0 29 -5 44 -20 52 -16 11 -18 10 -14 -2z"/>
<path d="M3382 308 l-2 -88 94 0 c103 0 107 3 105 63 -2 29 -2 28 -8 -8 l-6
-40 -50 -1 c-27 -1 -67 1 -87 4 l-37 5 -4 76 -3 76 -2 -87z"/>
<path d="M3638 383 c7 -3 16 -2 19 1 4 3 -2 6 -13 5 -11 0 -14 -3 -6 -6z"/>
<path d="M3700 386 c0 -2 7 -7 16 -10 8 -3 12 -2 9 4 -6 10 -25 14 -25 6z"/>
<path d="M4360 386 c0 -3 9 -10 20 -16 11 -6 20 -8 20 -6 0 3 -9 10 -20 16
-11 6 -20 8 -20 6z"/>
<path d="M4571 374 c0 -11 3 -14 6 -6 3 7 2 16 -1 19 -3 4 -6 -2 -5 -13z"/>
<path d="M5245 383 c11 -3 22 -9 25 -13 3 -5 14 -2 24 6 18 13 16 14 -25 13
-24 -1 -35 -4 -24 -6z"/>
<path d="M5328 383 c7 -3 16 -2 19 1 4 3 -2 6 -13 5 -11 0 -14 -3 -6 -6z"/>
<path d="M5378 383 c7 -3 16 -2 19 1 4 3 -2 6 -13 5 -11 0 -14 -3 -6 -6z"/>
<path d="M581 364 c0 -11 3 -14 6 -6 3 7 2 16 -1 19 -3 4 -6 -2 -5 -13z"/>
<path d="M1171 357 c-13 -21 -12 -21 5 -5 10 10 16 20 13 22 -3 3 -11 -5 -18
-17z"/>
<path d="M2725 370 c3 -5 8 -10 11 -10 2 0 4 5 4 10 0 6 -5 10 -11 10 -5 0 -7
-4 -4 -10z"/>
<path d="M3400 317 c0 -63 1 -67 23 -66 14 1 16 3 6 6 -12 3 -17 18 -18 60 -2
80 -11 80 -11 0z"/>
<path d="M677 350 c-3 -11 -1 -20 4 -20 5 0 9 9 9 20 0 11 -2 20 -4 20 -2 0
-6 -9 -9 -20z"/>
<path d="M2230 351 c0 -11 4 -22 9 -25 4 -3 6 6 3 19 -5 30 -12 33 -12 6z"/>
<path d="M4300 355 c0 -8 9 -15 20 -15 11 0 20 2 20 5 0 2 -9 9 -20 15 -16 9
-20 8 -20 -5z"/>
<path d="M5338 363 c7 -3 16 -2 19 1 4 3 -2 6 -13 5 -11 0 -14 -3 -6 -6z"/>
<path d="M5450 366 c0 -2 7 -6 15 -10 8 -3 15 -1 15 4 0 6 -7 10 -15 10 -8 0
-15 -2 -15 -4z"/>
<path d="M465 350 c3 -5 8 -10 11 -10 2 0 4 5 4 10 0 6 -5 10 -11 10 -5 0 -7
-4 -4 -10z"/>
<path d="M1062 353 c-15 -6 -6 -23 14 -23 8 0 14 7 14 15 0 15 -6 17 -28 8z"/>
<path d="M1270 353 c0 -5 5 -15 10 -23 8 -12 10 -11 10 8 0 12 -4 22 -10 22
-5 0 -10 -3 -10 -7z"/>
<path d="M1301 344 c0 -11 3 -14 6 -6 3 7 2 16 -1 19 -3 4 -6 -2 -5 -13z"/>
<path d="M1460 351 c0 -5 -8 -12 -17 -14 -14 -4 -12 -5 5 -6 13 -1 22 5 22 14
0 8 -2 15 -5 15 -3 0 -5 -4 -5 -9z"/>
<path d="M2140 351 c0 -6 4 -13 10 -16 6 -3 7 1 4 9 -7 18 -14 21 -14 7z"/>
<path d="M2770 340 c0 -11 4 -20 9 -20 6 0 9 9 8 20 -1 11 -5 20 -9 20 -4 0
-8 -9 -8 -20z"/>
<path d="M5246 351 c-4 -7 -5 -15 -2 -18 9 -9 19 4 14 18 -4 11 -6 11 -12 0z"/>
<path d="M2328 343 c12 -2 32 -2 45 0 12 2 2 4 -23 4 -25 0 -35 -2 -22 -4z"/>
<path d="M2427 343 c18 -2 50 -2 70 0 21 2 7 4 -32 4 -38 0 -55 -2 -38 -4z"/>
<path d="M3720 340 c-9 -6 -10 -10 -3 -10 6 0 15 5 18 10 8 12 4 12 -15 0z"/>
<path d="M4570 343 c0 -5 11 -13 25 -20 29 -13 33 -6 8 13 -20 15 -33 18 -33
7z"/>
<path d="M4890 340 c-9 -6 -10 -10 -3 -10 6 0 15 5 18 10 8 12 4 12 -15 0z"/>
<path d="M5270 339 c0 -5 5 -7 10 -4 6 3 10 8 10 11 0 2 -4 4 -10 4 -5 0 -10
-5 -10 -11z"/>
<path d="M578 315 c-6 -30 -3 -43 8 -33 3 4 4 19 2 35 l-3 28 -7 -30z"/>
<path d="M3138 332 c-9 -4 30 -7 87 -7 58 0 105 3 105 7 0 10 -168 9 -192 0z"/>
<path d="M3767 320 c3 -11 7 -20 8 -20 1 0 5 9 8 20 3 12 0 20 -8 20 -8 0 -11
-8 -8 -20z"/>
<path d="M4923 333 c-7 -2 -13 -11 -13 -19 0 -8 6 -11 15 -8 8 4 13 10 10 14
-3 5 1 11 7 13 7 3 9 5 3 5 -5 0 -16 -2 -22 -5z"/>
<path d="M5585 320 c5 -15 2 -20 -12 -20 -15 0 -16 -2 -3 -10 10 -6 16 -6 19
1 1 5 10 2 17 -8 12 -15 12 -12 0 13 -8 17 -12 34 -9 38 4 3 1 6 -6 6 -8 0
-10 -7 -6 -20z"/>
<path d="M1162 310 c0 -14 2 -19 5 -12 2 6 2 18 0 25 -3 6 -5 1 -5 -13z"/>
<path d="M2120 316 c0 -8 5 -18 10 -21 6 -3 10 1 10 9 0 8 -4 18 -10 21 -5 3
-10 -1 -10 -9z"/>
<path d="M2301 318 c0 -7 4 -22 9 -33 8 -18 9 -17 9 8 l1 27 84 0 c72 0 85 -3
89 -17 4 -14 5 -12 6 5 1 21 -2 22 -99 22 -74 0 -100 -3 -99 -12z"/>
<path d="M2518 303 c3 -17 7 -22 10 -13 3 8 9 21 15 28 7 9 4 12 -10 12 -17 0
-19 -5 -15 -27z"/>
<path d="M3679 313 c-13 -16 -12 -17 4 -4 9 7 17 15 17 17 0 8 -8 3 -21 -13z"/>
<path d="M4328 323 c6 -2 18 -2 25 0 6 3 1 5 -13 5 -14 0 -19 -2 -12 -5z"/>
<path d="M4726 317 c3 -10 9 -15 12 -12 3 3 0 11 -7 18 -10 9 -11 8 -5 -6z"/>
<path d="M897 275 c2 -25 -1 -54 -7 -65 -6 -11 -7 -20 -1 -20 5 0 12 7 15 16
9 23 7 114 -2 114 -5 0 -7 -20 -5 -45z"/>
<path d="M1455 310 c-3 -5 -1 -10 4 -10 6 0 11 5 11 10 0 6 -2 10 -4 10 -3 0
-8 -4 -11 -10z"/>
<path d="M1502 268 c1 -49 2 -50 5 -12 5 48 11 51 93 50 l55 -1 6 -50 6 -50 1
58 2 57 -85 0 -85 0 2 -52z"/>
<path d="M1692 273 l1 -48 4 43 4 43 42 -2 c26 -2 45 -9 49 -19 5 -11 7 -9 7
8 1 20 -3 22 -54 22 l-55 0 2 -47z"/>
<path d="M1810 306 c0 -10 8 -16 22 -16 12 0 19 1 17 3 -2 1 -12 9 -21 16 -15
12 -18 11 -18 -3z"/>
<path d="M2026 304 c-6 -16 10 -19 19 -4 4 7 12 7 25 0 25 -14 40 -13 40 3 0
18 -77 19 -84 1z"/>
<path d="M3341 298 c-1 -16 4 -28 9 -28 12 0 12 8 0 35 -8 18 -9 17 -9 -7z"/>
<path d="M3736 305 c4 -8 8 -15 10 -15 2 0 4 7 4 15 0 8 -4 15 -10 15 -5 0 -7
-7 -4 -15z"/>
<path d="M4640 310 c0 -17 24 -22 51 -10 l24 10 -25 -2 c-14 -1 -31 1 -37 5
-8 5 -13 3 -13 -3z"/>
<path d="M4807 313 c-4 -3 -7 -11 -7 -17 0 -6 5 -5 12 2 6 6 9 14 7 17 -3 3
-9 2 -12 -2z"/>
<path d="M5078 313 c7 -3 16 -2 19 1 4 3 -2 6 -13 5 -11 0 -14 -3 -6 -6z"/>
<path d="M5810 311 c0 -5 5 -13 10 -16 6 -3 10 -2 10 4 0 5 -4 13 -10 16 -5 3
-10 2 -10 -4z"/>
<path d="M632 298 c-7 -7 -12 -17 -12 -22 0 -6 5 -4 10 4 9 13 11 13 20 0 5
-8 10 -10 10 -5 0 6 -4 16 -8 22 -6 10 -11 10 -20 1z"/>
<path d="M1301 294 c0 -11 3 -14 6 -6 3 7 2 16 -1 19 -3 4 -6 -2 -5 -13z"/>
<path d="M2168 303 c7 -3 16 -2 19 1 4 3 -2 6 -13 5 -11 0 -14 -3 -6 -6z"/>
<path d="M2213 303 c9 -2 23 -2 30 0 6 3 -1 5 -18 5 -16 0 -22 -2 -12 -5z"/>
<path d="M3015 299 c-67 -5 -65 -6 34 -7 57 -1 102 0 100 2 -9 9 -67 11 -134
5z"/>
<path d="M3213 303 c15 -2 39 -2 55 0 15 2 2 4 -28 4 -30 0 -43 -2 -27 -4z"/>
<path d="M3299 293 c-13 -16 -12 -17 4 -4 16 13 21 21 13 21 -2 0 -10 -8 -17
-17z"/>
<path d="M4860 299 c0 -5 5 -7 10 -4 6 3 10 8 10 11 0 2 -4 4 -10 4 -5 0 -10
-5 -10 -11z"/>
<path d="M2752 275 c0 -16 2 -22 5 -12 2 9 2 23 0 30 -3 6 -5 -1 -5 -18z"/>
<path d="M4616 293 c6 -4 14 -15 17 -23 5 -11 6 -9 4 4 -1 11 -9 21 -17 23
-10 3 -11 2 -4 -4z"/>
<path d="M4825 290 c-3 -5 -1 -10 4 -10 6 0 11 5 11 10 0 6 -2 10 -4 10 -3 0
-8 -4 -11 -10z"/>
<path d="M4728 283 c7 -3 16 -2 19 1 4 3 -2 6 -13 5 -11 0 -14 -3 -6 -6z"/>
<path d="M4772 274 c9 -9 21 -15 27 -13 6 2 -2 10 -17 17 -25 11 -25 11 -10
-4z"/>
<path d="M5100 280 c-9 -6 -10 -10 -3 -10 6 0 15 5 18 10 8 12 4 12 -15 0z"/>
<path d="M5260 280 c0 -5 5 -10 11 -10 5 0 7 5 4 10 -3 6 -8 10 -11 10 -2 0
-4 -4 -4 -10z"/>
<path d="M1810 270 c0 -11 304 -12 415 0 48 5 -7 7 -172 8 -157 1 -243 -2
-243 -8z"/>
<path d="M2490 224 l0 -56 -90 4 c-50 1 -90 0 -90 -4 0 -5 43 -8 95 -8 l95 0
0 60 c0 33 -2 60 -5 60 -3 0 -5 -25 -5 -56z"/>
<path d="M2722 265 c-11 -12 -10 -15 3 -15 8 0 15 7 15 15 0 18 -2 18 -18 0z"/>
<path d="M2810 236 c0 -25 5 -48 10 -51 6 -4 10 11 10 39 0 25 -4 48 -10 51
-6 4 -10 -11 -10 -39z"/>
<path d="M3043 274 c3 -3 52 -6 109 -6 61 1 105 -3 109 -9 4 -7 9 -4 12 5 6
14 -8 16 -115 16 -67 0 -119 -3 -115 -6z"/>
<path d="M5215 270 c-3 -6 1 -7 9 -4 18 7 21 14 7 14 -6 0 -13 -4 -16 -10z"/>
<path d="M544 258 c-3 -4 4 -8 15 -8 12 0 21 4 21 8 0 5 -7 9 -15 9 -9 0 -18
-4 -21 -9z"/>
<path d="M1778 241 c-3 -21 -1 -28 9 -24 14 6 18 53 4 53 -5 0 -11 -13 -13
-29z"/>
<path d="M2847 254 c3 -9 8 -11 12 -6 3 6 20 12 36 15 24 3 22 4 -12 6 -35 1
-41 -2 -36 -15z"/>
<path d="M2938 263 c6 -2 18 -2 25 0 6 3 1 5 -13 5 -14 0 -19 -2 -12 -5z"/>
<path d="M4430 256 c0 -8 4 -17 9 -20 5 -4 7 3 4 14 -6 23 -13 26 -13 6z"/>
<path d="M5150 261 c0 -5 5 -13 10 -16 6 -3 10 -2 10 4 0 5 -4 13 -10 16 -5 3
-10 2 -10 -4z"/>
<path d="M5586 255 c4 -8 8 -15 10 -15 2 0 4 7 4 15 0 8 -4 15 -10 15 -5 0 -7
-7 -4 -15z"/>
<path d="M677 240 c3 -11 7 -20 9 -20 2 0 4 9 4 20 0 11 -4 20 -9 20 -5 0 -7
-9 -4 -20z"/>
<path d="M1198 253 c6 -2 18 -2 25 0 6 3 1 5 -13 5 -14 0 -19 -2 -12 -5z"/>
<path d="M2628 253 c7 -3 16 -2 19 1 4 3 -2 6 -13 5 -11 0 -14 -3 -6 -6z"/>
<path d="M3292 213 c-2 -41 1 -53 13 -53 8 0 15 5 15 11 0 5 -4 8 -9 4 -6 -3
-12 16 -14 42 l-3 48 -2 -52z"/>
<path d="M958 238 c-4 -10 -2 -31 3 -48 l11 -30 166 0 c91 0 163 3 159 6 -3 4
-77 7 -164 8 l-158 1 -5 40 c-4 28 -7 35 -12 23z"/>
<path d="M1810 240 c0 -6 87 -10 240 -10 153 0 240 4 240 10 0 6 -87 10 -240
10 -153 0 -240 -4 -240 -10z"/>
<path d="M2560 231 c0 -10 7 -22 16 -25 23 -9 214 -7 214 2 0 4 -47 6 -105 4
-104 -3 -111 -1 -106 31 0 4 -3 7 -9 7 -5 0 -10 -9 -10 -19z"/>
<path d="M2775 240 c-3 -5 -1 -10 4 -10 6 0 11 5 11 10 0 6 -2 10 -4 10 -3 0
-8 -4 -11 -10z"/>
<path d="M315 230 c4 -6 11 -8 16 -5 14 9 11 15 -7 15 -8 0 -12 -5 -9 -10z"/>
<path d="M1477 216 c-4 -15 -6 -31 -2 -34 10 -10 16 6 13 35 l-3 28 -8 -29z"/>
<path d="M2590 229 c0 -5 39 -9 87 -9 47 0 84 2 82 4 -10 8 -169 13 -169 5z"/>
<path d="M3590 228 c0 -16 -13 -18 -112 -20 l-113 -2 108 -3 c114 -4 142 2
127 27 -8 13 -10 12 -10 -2z"/>
<path d="M5606 225 c-3 -8 -1 -15 4 -15 13 0 22 18 11 24 -5 3 -11 -1 -15 -9z"/>
<path d="M1153 223 c9 -2 25 -2 35 0 9 3 1 5 -18 5 -19 0 -27 -2 -17 -5z"/>
<path d="M1223 223 c9 -2 23 -2 30 0 6 3 -1 5 -18 5 -16 0 -22 -2 -12 -5z"/>
<path d="M3262 210 c0 -14 2 -19 5 -12 2 6 2 18 0 25 -3 6 -5 1 -5 -13z"/>
<path d="M5145 220 c-3 -5 -1 -10 4 -10 6 0 11 5 11 10 0 6 -2 10 -4 10 -3 0
-8 -4 -11 -10z"/>
<path d="M1940 213 c0 -5 -32 -8 -71 -8 -39 1 -73 -3 -75 -7 -3 -4 82 -8 188
-7 106 1 182 4 168 9 -17 5 1 7 53 8 43 0 81 3 84 6 12 11 -298 6 -319 -5 -15
-8 -19 -8 -14 0 4 6 2 11 -3 11 -6 0 -11 -3 -11 -7z"/>
<path d="M495 200 c-3 -6 1 -7 9 -4 18 7 21 14 7 14 -6 0 -13 -4 -16 -10z"/>
<path d="M1238 203 c6 -2 18 -2 25 0 6 3 1 5 -13 5 -14 0 -19 -2 -12 -5z"/>
<path d="M1301 203 c-2 -36 11 -43 79 -43 68 0 81 7 79 43 0 7 -4 2 -9 -10 -8
-20 -16 -23 -70 -23 -54 0 -62 3 -70 23 -5 12 -9 17 -9 10z"/>
<path d="M1501 203 c-2 -37 10 -43 90 -43 76 0 79 1 78 23 -1 16 -2 18 -6 5
-4 -15 -16 -18 -74 -18 -63 0 -71 2 -79 23 -5 12 -9 17 -9 10z"/>
<path d="M1724 198 c-3 -5 -3 -12 0 -15 3 -4 6 -2 6 4 0 6 9 9 20 6 11 -3 20
-3 20 0 0 10 -40 15 -46 5z"/>
<path d="M2533 198 c-22 -29 -24 -38 -8 -38 11 0 15 5 11 16 -3 8 -2 12 4 9 6
-3 10 1 10 9 0 19 -4 20 -17 4z"/>
<path d="M3620 195 c0 -8 2 -15 4 -15 2 0 6 7 10 15 3 8 1 15 -4 15 -6 0 -10
-7 -10 -15z"/>
<path d="M1691 183 c-1 -18 4 -23 22 -22 15 1 17 3 5 6 -9 2 -19 12 -21 21 -3
12 -5 10 -6 -5z"/>
<path d="M2248 193 c12 -2 30 -2 40 0 9 3 -1 5 -23 4 -22 0 -30 -2 -17 -4z"/>
<path d="M680 180 c0 -6 -104 -11 -277 -13 l-278 -2 283 -3 c245 -2 282 0 282
13 0 8 -2 15 -5 15 -3 0 -5 -4 -5 -10z"/>
<path d="M707 176 c-6 -14 6 -16 83 -16 50 0 90 3 90 8 0 4 -34 5 -76 4 -51
-3 -79 0 -84 8 -5 8 -9 7 -13 -4z"/>
<path d="M3335 168 c-11 -42 -43 -48 -282 -48 -189 0 -223 2 -223 15 0 9 -6
12 -15 8 -13 -5 -13 -8 4 -20 27 -18 444 -20 485 -2 30 14 60 55 46 64 -5 3
-12 -4 -15 -17z"/>
<path d="M910 170 c20 -13 53 -13 45 0 -3 6 -18 10 -33 10 -21 0 -24 -2 -12
-10z"/>
<path d="M1740 170 c0 -6 100 -10 280 -10 180 0 280 4 280 10 0 6 -100 10
-280 10 -180 0 -280 -4 -280 -10z"/>
<path d="M2575 169 c-17 -4 26 -7 99 -8 71 0 127 2 124 5 -9 8 -189 11 -223 3z"/>
<path d="M1468 163 c6 -2 18 -2 25 0 6 3 1 5 -13 5 -14 0 -19 -2 -12 -5z"/>
<path d="M2847 163 c-4 -3 -7 -12 -7 -20 0 -10 43 -13 215 -13 198 0 215 1
215 18 0 12 -3 14 -8 4 -12 -18 -408 -13 -404 6 2 13 -1 15 -11 5z"/>
<path d="M3703 163 c43 -2 110 -2 150 0 40 1 5 3 -78 3 -82 0 -115 -2 -72 -3z"/>
<path d="M3973 163 c20 -2 54 -2 75 0 20 2 3 4 -38 4 -41 0 -58 -2 -37 -4z"/>
<path d="M4143 163 c32 -2 81 -2 110 0 29 2 3 3 -58 3 -60 0 -84 -1 -52 -3z"/>
<path d="M5068 163 c7 -3 16 -2 19 1 4 3 -2 6 -13 5 -11 0 -14 -3 -6 -6z"/>
<path d="M173 133 c26 -2 68 -2 95 0 26 2 4 3 -48 3 -52 0 -74 -1 -47 -3z"/>
<path d="M338 133 c7 -3 16 -2 19 1 4 3 -2 6 -13 5 -11 0 -14 -3 -6 -6z"/>
<path d="M413 133 c9 -2 23 -2 30 0 6 3 -1 5 -18 5 -16 0 -22 -2 -12 -5z"/>
<path d="M483 133 c9 -2 25 -2 35 0 9 3 1 5 -18 5 -19 0 -27 -2 -17 -5z"/>
<path d="M588 133 c12 -2 32 -2 45 0 12 2 2 4 -23 4 -25 0 -35 -2 -22 -4z"/>
<path d="M698 133 c7 -3 16 -2 19 1 4 3 -2 6 -13 5 -11 0 -14 -3 -6 -6z"/>
<path d="M818 133 c6 -2 18 -2 25 0 6 3 1 5 -13 5 -14 0 -19 -2 -12 -5z"/>
<path d="M883 133 c9 -2 23 -2 30 0 6 3 -1 5 -18 5 -16 0 -22 -2 -12 -5z"/>
<path d="M943 133 c9 -2 23 -2 30 0 6 3 -1 5 -18 5 -16 0 -22 -2 -12 -5z"/>
<path d="M1023 133 c15 -2 37 -2 50 0 12 2 0 4 -28 4 -27 0 -38 -2 -22 -4z"/>
<path d="M1108 133 c7 -3 16 -2 19 1 4 3 -2 6 -13 5 -11 0 -14 -3 -6 -6z"/>
<path d="M1148 133 c6 -2 18 -2 25 0 6 3 1 5 -13 5 -14 0 -19 -2 -12 -5z"/>
<path d="M1198 133 c7 -3 16 -2 19 1 4 3 -2 6 -13 5 -11 0 -14 -3 -6 -6z"/>
<path d="M1238 133 c7 -3 16 -2 19 1 4 3 -2 6 -13 5 -11 0 -14 -3 -6 -6z"/>
<path d="M1271 136 c7 -7 159 -10 166 -3 3 4 -33 7 -82 7 -49 0 -86 -2 -84 -4z"/>
<path d="M1473 133 c15 -2 39 -2 55 0 15 2 2 4 -28 4 -30 0 -43 -2 -27 -4z"/>
<path d="M1613 133 c26 -2 67 -2 90 0 23 2 2 3 -48 3 -49 0 -68 -1 -42 -3z"/>
<path d="M1798 133 c28 -2 76 -2 105 0 28 2 5 3 -53 3 -58 0 -81 -1 -52 -3z"/>
<path d="M2068 133 c57 -2 147 -2 200 0 53 1 7 3 -103 3 -110 0 -154 -2 -97
-3z"/>
<path d="M2408 133 c12 -2 32 -2 45 0 12 2 2 4 -23 4 -25 0 -35 -2 -22 -4z"/>
<path d="M2528 133 c12 -2 30 -2 40 0 9 3 -1 5 -23 4 -22 0 -30 -2 -17 -4z"/>
<path d="M2608 133 c12 -2 32 -2 45 0 12 2 2 4 -23 4 -25 0 -35 -2 -22 -4z"/>
<path d="M2728 133 c7 -3 16 -2 19 1 4 3 -2 6 -13 5 -11 0 -14 -3 -6 -6z"/>
<path d="M3873 133 c9 -2 23 -2 30 0 6 3 -1 5 -18 5 -16 0 -22 -2 -12 -5z"/>
<path d="M4958 133 c7 -3 16 -2 19 1 4 3 -2 6 -13 5 -11 0 -14 -3 -6 -6z"/>
</g>
</svg>
